<svg id="bb14a685-4c4c-4d0f-8658-19debc9dc265" data-name="Layer 1" xmlns="http://www.w3.org/2000/svg" viewBox="0 0 400 400"><defs><style>.ab94931b-29c2-4738-a954-254cd8f5bddc{fill:#524538;}.e490c25c-d947-4435-a685-61a8ceaae68f{fill:#fbe2ed;}.fa6002b8-2c30-494d-ac37-315d226f0718{fill:#997b5b;}.a96522ce-f89e-4657-9a71-d45e6d88c28a{fill:#f4a2c6;}.b77b040f-c67b-4cee-a728-2293839be4a7{fill:#fff;}.ac519c80-1e72-42ef-bb18-ce59f36b4269{fill:#ef4e45;}.bd9ef4ba-0c95-41cb-83fe-37780b9a96b2{fill:#f182b3;}.b0033d4d-0ae9-49ce-b202-ac506239250f{fill:#f393bd;}.ad5a16a7-a27b-4c81-8a01-3591e7bf0b64{fill:#f3857e;}.f446fc91-4f63-477c-b26c-c72dac679994{fill:#faddea;}.ba021279-9a7e-49d0-9070-223aa0b7f177{fill:#a7d388;}.bd11c86a-4ac3-4aae-919b-67627553a7d7{fill:#f8b79d;}.ba12cdd1-ea8b-454b-953c-dd49592c8158{fill:#fffbde;}.a409fc08-8d2e-4bc8-b813-25af95e6f9c3{fill:#d5b2d4;}.ffbdbb0f-005b-4a0f-b2ee-b4ce34dc2fea{fill:#40bd0f;}.a9fd314d-0c69-4b23-bec9-d7b653c193b5{fill:#f40010;}.abb81c66-6736-47eb-bc45-231641671f5a{fill:#fcca3b;}.fa09171d-5c3f-497b-9c69-ed6c18994895{fill:#8971b2;}.b4ec9f2a-0db3-420d-81a2-a04a567ae19a{fill:#58595b;}.b0585a91-23e5-4da3-b05d-d47e6892f6b8{fill:#808184;}.e03161cc-99ca-4f1c-8c9d-1a81da26ffbb{fill:#a5def8;}.afc284dd-344e-4b88-a8cd-0f3fedf127ca{fill:#e4edef;}.b68764b1-d395-4f6b-b2fb-ce71422c5a9e{fill:#f9c4c4;}</style></defs><title>strawberry_shake_signet</title><path class="ab94931b-29c2-4738-a954-254cd8f5bddc" d="M299.09,366.87a7.43,7.43,0,0,1-.81,1.69,3.58,3.58,0,0,1-1,1,10.32,10.32,0,0,1-1.2.69,3.63,3.63,0,0,1-1.25.33,7.42,7.42,0,0,0-1,.12,4.35,4.35,0,0,1-1.2-.05,2,2,0,0,1-1.21-.48,2.44,2.44,0,0,1-.5-.73,3,3,0,0,1,0-1.27,2.88,2.88,0,0,1,.49-1.38,4,4,0,0,1,.94-.82,8.64,8.64,0,0,1,1-.57,5.55,5.55,0,0,1,.89-.31,2.8,2.8,0,0,0,.77-.29,1.78,1.78,0,0,0,.58-.58,3,3,0,0,0,.38-1.07,6.13,6.13,0,0,0,.13-1.23,7.44,7.44,0,0,0-.07-1.08,4.33,4.33,0,0,0-.65-1.75,1.89,1.89,0,0,0-.66-.52,2,2,0,0,0-1-.22l-1.06.1a2.52,2.52,0,0,0-.91.31c-.27.16-.52.32-.76.49a2.79,2.79,0,0,0-.64.6c-.19.23-.42.54-.69.91a9.07,9.07,0,0,0-.73,1.17c-.21.41-.5.91-.87,1.51l-1,1.59a10,10,0,0,1-1,1.28c-.36.38-.65.68-.88.88a3.61,3.61,0,0,1-.68.49l-.75.39a2.78,2.78,0,0,1-1.1.23,6.29,6.29,0,0,1-1.52-.13,14.17,14.17,0,0,1-1.52-.36,8,8,0,0,1-1.28-.46,5.22,5.22,0,0,1-2.07-1.58,6.49,6.49,0,0,1-.94-1.66,6.12,6.12,0,0,1-.35-2.67,23.08,23.08,0,0,1,.24-2.42,6.19,6.19,0,0,1,.57-1.7,5.59,5.59,0,0,1,1.17-1.61,5.86,5.86,0,0,1,1.18-1,3.37,3.37,0,0,1,.85-.33,3.12,3.12,0,0,1,1.12,0,3.34,3.34,0,0,1,1.22.46,2,2,0,0,1,.72,1.05,2.54,2.54,0,0,1,.15,1.14,1.68,1.68,0,0,1-.33.76,5,5,0,0,1-.8.77,1.6,1.6,0,0,0-.63.95,4.76,4.76,0,0,0,0,1.15,2.12,2.12,0,0,0,.34,1.07,2.73,2.73,0,0,0,.66.69,2.31,2.31,0,0,0,.94.34,5.58,5.58,0,0,0,1.25.07,3,3,0,0,0,1.11-.23,9,9,0,0,0,.89-.49,2.12,2.12,0,0,0,.75-.86c.19-.37.49-.89.92-1.55a13.31,13.31,0,0,1,1.62-2,6.21,6.21,0,0,1,1.58-1.26,4.46,4.46,0,0,1,1.16-.37,13.75,13.75,0,0,1,1.79-.11,6.9,6.9,0,0,1,2.31.36,8.3,8.3,0,0,1,1.89.9,5.14,5.14,0,0,1,1.35,1.36,3.78,3.78,0,0,1,.65,1.24c.06.28.13.76.21,1.45a8.09,8.09,0,0,1,0,2A29.68,29.68,0,0,1,299.09,366.87Z"/><path class="ab94931b-29c2-4738-a954-254cd8f5bddc" d="M302.23,349a4,4,0,0,1-2.07.94,4.1,4.1,0,0,1-1.83-.09,7.22,7.22,0,0,1-1.75-1l-8.05-1.42c-.15.82-.3,1.65-.44,2.48a2.82,2.82,0,0,1-1,1.85,2,2,0,0,1-1.59.47l-1.2-.21a1.56,1.56,0,0,1-.84-.52,2.3,2.3,0,0,1-.36-1.61,3.15,3.15,0,0,1,.69-1.94,3.66,3.66,0,0,0,.81-1.71l-3.09-.42c-.37-.15-.77-.33-1.18-.52a1.53,1.53,0,0,1-.81-1.17,7.11,7.11,0,0,1,.18-2.63,3.13,3.13,0,0,1,2-.67,13.82,13.82,0,0,1,1.65.12,11.11,11.11,0,0,1,2.3,1c.18-1,.31-2.1.41-3.33.27-.64.92-1,2-1a2.09,2.09,0,0,1,2.1,1,4.58,4.58,0,0,1-.05,2c-.16.67-.38,1.53-.66,2.59q3.24.78,6.5,1.48a16.41,16.41,0,0,1,4.8,1.61c1,.61,1.59,1.11,1.7,1.48A1.75,1.75,0,0,1,302.23,349Z"/><path class="ab94931b-29c2-4738-a954-254cd8f5bddc" d="M304.05,337.05c-.6.47-2.79.36-6.56-.3-1.86-.52-3.78-1-5.74-1.45a12.54,12.54,0,0,1-4-1.38,2.56,2.56,0,0,1-1.21-1.7c-.1-.66.5-1.24,1.82-1.75l3.7.49-.88-1.61c-.26-.71-.49-1.46-.7-2.23a7.69,7.69,0,0,1-.24-2.47,2.46,2.46,0,0,1,1.66-1.73,9,9,0,0,1,2.75-.32,11,11,0,0,1,2.49.29,2.22,2.22,0,0,1,1.24.63,1.26,1.26,0,0,1,.11,1.12,1.36,1.36,0,0,1-.58.95,9.67,9.67,0,0,0-1.71,1.75,5.79,5.79,0,0,0,0,4l1,.17a14.11,14.11,0,0,1,2.6.09c.86.11,1.77.25,2.7.41a3,3,0,0,1,1.81,1.67,6.69,6.69,0,0,1,.34,1.9A1.91,1.91,0,0,1,304.05,337.05Z"/><path class="ab94931b-29c2-4738-a954-254cd8f5bddc" d="M307.42,318.86a10.76,10.76,0,0,1-.82,1.22,5.58,5.58,0,0,1-1.39.87,2.86,2.86,0,0,1-2.08.33q-.94-.25-1.68-.48a3.76,3.76,0,0,1-1.31-.66,2.8,2.8,0,0,1-.89-1.28,3.84,3.84,0,0,1-.17-1.9c.1-.7.16-1.38.19-2a2.78,2.78,0,0,0-1-2.47,1.84,1.84,0,0,0-.81-.35,5.11,5.11,0,0,0-1.14,0,1.13,1.13,0,0,0-1,.48,2.47,2.47,0,0,0-.34.81,1.29,1.29,0,0,0,.17.82,7.67,7.67,0,0,0,1.06,1.34,4.38,4.38,0,0,1,1,1.39,8.48,8.48,0,0,1,.27,1,1.74,1.74,0,0,1-.05.92,2.73,2.73,0,0,1-.93.95,2.21,2.21,0,0,1-2.05.14,3.55,3.55,0,0,1-1.78-1.11,4.68,4.68,0,0,0-1.22-1.13,3.13,3.13,0,0,1-1.11-1.15,3,3,0,0,1-.43-1.41c0-.48,0-1,0-1.47a7.64,7.64,0,0,1,.51-2.23,4.29,4.29,0,0,1,1.32-2.09,8.25,8.25,0,0,1,2-1.08,8,8,0,0,1,3.95.05,15.1,15.1,0,0,0,5.27.11,35.7,35.7,0,0,1,5.14-.46c.55.2.83.44.83.71a2.23,2.23,0,0,1-.75,1.15,7.31,7.31,0,0,1-1.4,1.14,2.72,2.72,0,0,0-.95.88c1,1,1.61,1.69,1.8,1.94a2.46,2.46,0,0,1,.33,1.32,7.09,7.09,0,0,1-.2,1.92Q307.6,318,307.42,318.86Zm-2.15-3.39a1.71,1.71,0,0,0-.54-.45,2,2,0,0,0-.72-.26,1,1,0,0,0-.79.22,1.2,1.2,0,0,0-.43,1,2.18,2.18,0,0,0,.23,1.15,2.07,2.07,0,0,0,.91.8,2.36,2.36,0,0,0,1-.78A2.23,2.23,0,0,0,305.27,315.47Z"/><path class="ab94931b-29c2-4738-a954-254cd8f5bddc" d="M310.1,302.29a3.64,3.64,0,0,1-2.27,1.22,20.86,20.86,0,0,1-5.72.35q-3.87-.14-7.74-.54-2.91-1-2.55-2.73c.24-1.17.86-1.73,1.84-1.69a31.13,31.13,0,0,0,3.9-.12c1.62-.13,3.22-.32,4.8-.58l.05-.28a33.8,33.8,0,0,0-4.08-2.28,25,25,0,0,1-3.11-1.64,2.2,2.2,0,0,1-1.07-1.74,26.57,26.57,0,0,1,4-.4c1.32,0,3.49.07,6.51.31q-7.59-2.28-8.64-4.1a2.48,2.48,0,0,1-.2-1.44,3.8,3.8,0,0,1,.61-1.6,3.69,3.69,0,0,1,2.19-.09c.79.18,1.57.34,2.36.48a54.11,54.11,0,0,1,5.2,2.28,15,15,0,0,1,4.19,3.05q1.69,1.78,1.35,2.61t-5.26,2.7C308.93,299.31,310.15,301.39,310.1,302.29Z"/><path class="ab94931b-29c2-4738-a954-254cd8f5bddc" d="M313.87,282.44a4.72,4.72,0,0,1-3.17,1.76,21.83,21.83,0,0,1-6.27-.57q-4.31-.83-8.5-1.43c-2.06-.56-3.65-.94-4.75-1.16s-1.53-1.16-1.26-2.84,1.05-2.16,1.93-1.81,2.22.81,4,1.39a5.84,5.84,0,0,0,5.08-.58,8.06,8.06,0,0,0,1.22-2.83,5.4,5.4,0,0,1,.87-2.17,6.17,6.17,0,0,1,1.65-1.28,4.35,4.35,0,0,1,3-.34l2.71.48a3.21,3.21,0,0,1,1.55.75,6,6,0,0,1,1.28,1.71,9.36,9.36,0,0,1,.82,2,14.12,14.12,0,0,1,.3,2.87A14.36,14.36,0,0,1,313.87,282.44Zm-3.47-5.91a2.29,2.29,0,0,0-1.21-1.07,3.41,3.41,0,0,0-1.68-.4,1.63,1.63,0,0,0-1,.33,4.8,4.8,0,0,0-.79,1.41,4.18,4.18,0,0,0-.42,1.85c0,.46.2.74.48.82a11.37,11.37,0,0,0,2.07.2A2.53,2.53,0,0,0,310,279,3.43,3.43,0,0,0,310.4,276.53Z"/><path class="ab94931b-29c2-4738-a954-254cd8f5bddc" d="M317.51,263.16a11.6,11.6,0,0,1-1.73,3.87,3.84,3.84,0,0,1-2.17,1.43,14.55,14.55,0,0,1-3.79,0,24.73,24.73,0,0,1-4.54-.74,16.17,16.17,0,0,1-3.17-1.15,4.59,4.59,0,0,1-1.88-1.77,7,7,0,0,1-.86-2.44,5.15,5.15,0,0,1,.3-2.66,8.9,8.9,0,0,1,1.16-3.14,5.73,5.73,0,0,1,2.23-2.12,8.47,8.47,0,0,1,2.46-.9,5.28,5.28,0,0,1,2.34.16,2.24,2.24,0,0,1,.88,1.29,14,14,0,0,1,.19,2.22,9.18,9.18,0,0,1-.16,2.32,7,7,0,0,1-.42,1.24,4.75,4.75,0,0,0,0,2,3.71,3.71,0,0,0,4.22-.07,2.91,2.91,0,0,0,.94-1.21,1.87,1.87,0,0,0,.13-1.48,2.24,2.24,0,0,0-.63-1,6.62,6.62,0,0,1-.93-1,4.34,4.34,0,0,1-.72-1.2,2.23,2.23,0,0,1-.06-1.16,1.3,1.3,0,0,1,.43-.85,1.57,1.57,0,0,1,1-.11,7.81,7.81,0,0,1,1.53.33,4.73,4.73,0,0,1,1.6.95,5.94,5.94,0,0,1,1.31,1.62,5.58,5.58,0,0,1,.67,1.92A12,12,0,0,1,317.51,263.16Zm-11.9-5.61a1.83,1.83,0,0,0-1.42,0,2.28,2.28,0,0,0-.83,1.17,4.94,4.94,0,0,0-.34,1.86,7,7,0,0,0,.12,1.4c.07.29.32.53.76.73a2.49,2.49,0,0,0,1.44.18A35.87,35.87,0,0,0,305.61,257.55Z"/><path class="ab94931b-29c2-4738-a954-254cd8f5bddc" d="M319,252.52q-.9.71-6.56-.3-2.79-.78-5.74-1.44a13.07,13.07,0,0,1-4-1.38,2.6,2.6,0,0,1-1.21-1.71c-.1-.66.5-1.24,1.82-1.75l3.7.5-.88-1.61c-.26-.72-.49-1.47-.7-2.24a7.67,7.67,0,0,1-.24-2.47,2.47,2.47,0,0,1,1.66-1.73,9,9,0,0,1,2.75-.32,11.84,11.84,0,0,1,2.5.29,2.22,2.22,0,0,1,1.23.63,1.3,1.3,0,0,1,.12,1.13,1.38,1.38,0,0,1-.59.94,10.89,10.89,0,0,0-1.71,1.75,5.79,5.79,0,0,0,0,3.95l1,.18a13.28,13.28,0,0,1,2.6.08c.87.11,1.77.25,2.71.42a3,3,0,0,1,1.8,1.66,6.7,6.7,0,0,1,.34,1.91A1.9,1.9,0,0,1,319,252.52Z"/><path class="ab94931b-29c2-4738-a954-254cd8f5bddc" d="M321.76,236.93q-.9.69-6.56-.31c-1.86-.52-3.78-1-5.74-1.44a12.54,12.54,0,0,1-4-1.38,2.6,2.6,0,0,1-1.21-1.7c-.11-.66.5-1.25,1.82-1.76l3.7.5-.89-1.61c-.25-.72-.48-1.46-.69-2.24a7.63,7.63,0,0,1-.24-2.46,2.45,2.45,0,0,1,1.66-1.74,9,9,0,0,1,2.75-.31,11.12,11.12,0,0,1,2.49.28,2.28,2.28,0,0,1,1.24.64,1.25,1.25,0,0,1,.11,1.12,1.39,1.39,0,0,1-.58.95,9.46,9.46,0,0,0-1.71,1.74,5.79,5.79,0,0,0,0,3.95l1,.18a15,15,0,0,1,2.6.08q1.29.17,2.7.42a3,3,0,0,1,1.81,1.67,7,7,0,0,1,.34,1.9A1.92,1.92,0,0,1,321.76,236.93Z"/><path class="ab94931b-29c2-4738-a954-254cd8f5bddc" d="M326,222a1.71,1.71,0,0,1-1.38.25,5.16,5.16,0,0,1-2.33-1.88,36.59,36.59,0,0,0-2.75-2.91c-.85-.79-1.62-1.56-2.32-2.3a50,50,0,0,1-4.09,3.94,2.92,2.92,0,0,1-1.57.12,12.6,12.6,0,0,1-2.16-.67,2.49,2.49,0,0,1-1.68-3.36,9.77,9.77,0,0,1,1.67-.86,46.67,46.67,0,0,1,5.18-1.2q-1.62-1.28-2.61-2.16c-.67-.59-1.26-1.08-1.78-1.46a1.45,1.45,0,0,1-.75-1.2,2.74,2.74,0,0,1,1.09-1.58,2.4,2.4,0,0,1,2-.75,18.6,18.6,0,0,1,2.57.72,8.49,8.49,0,0,1,3.24,2.34q1.67,1.78,5.73,6.84c1.3,2.12,2,3.5,2,4.16A8.08,8.08,0,0,1,326,222Z"/><path class="ab94931b-29c2-4738-a954-254cd8f5bddc" d="M329.57,194.54a7.54,7.54,0,0,1-.81,1.7,3.73,3.73,0,0,1-1,1,9,9,0,0,1-1.2.68,3.44,3.44,0,0,1-1.25.34,7.74,7.74,0,0,0-1,.11,4.24,4.24,0,0,1-1.2,0,2,2,0,0,1-1.21-.49,2.29,2.29,0,0,1-.5-.72,3,3,0,0,1,0-1.28,3,3,0,0,1,.49-1.38,4.23,4.23,0,0,1,.94-.82,7.28,7.28,0,0,1,1-.56,4.72,4.72,0,0,1,.89-.31,2.81,2.81,0,0,0,.77-.3,1.69,1.69,0,0,0,.58-.58,2.91,2.91,0,0,0,.38-1.06,6.23,6.23,0,0,0,.13-1.24,7.21,7.21,0,0,0-.07-1.07,4,4,0,0,0-.26-1,4.23,4.23,0,0,0-.39-.75,1.78,1.78,0,0,0-.66-.52,1.89,1.89,0,0,0-1-.22c-.37,0-.72.05-1.06.1a2.33,2.33,0,0,0-.91.3c-.27.16-.52.33-.76.49a3.3,3.3,0,0,0-.64.6c-.19.24-.42.54-.69.92a7.88,7.88,0,0,0-.73,1.17q-.32.6-.87,1.5l-1,1.6a9.88,9.88,0,0,1-1,1.27c-.36.39-.65.68-.88.89a3.54,3.54,0,0,1-.68.48q-.35.19-.75.39a2.62,2.62,0,0,1-1.1.23,6.8,6.8,0,0,1-1.52-.12c-.55-.11-1.05-.23-1.52-.36a10.5,10.5,0,0,1-1.28-.46,5.64,5.64,0,0,1-1.07-.62,5.3,5.3,0,0,1-1-1,6.24,6.24,0,0,1-.94-1.65,6.12,6.12,0,0,1-.35-2.67,23.34,23.34,0,0,1,.24-2.43,6.42,6.42,0,0,1,.57-1.7,5.73,5.73,0,0,1,1.17-1.61,6.67,6.67,0,0,1,1.18-1,3.37,3.37,0,0,1,.85-.33,3.17,3.17,0,0,1,1.12.05,3,3,0,0,1,1.22.46,1.88,1.88,0,0,1,.72,1.05,2.51,2.51,0,0,1,.15,1.14,1.73,1.73,0,0,1-.33.76,5,5,0,0,1-.8.76,1.62,1.62,0,0,0-.63,1,4.65,4.65,0,0,0-.05,1.14,2.12,2.12,0,0,0,.34,1.07,2.43,2.43,0,0,0,.66.69,2.31,2.31,0,0,0,.94.35,5.58,5.58,0,0,0,1.25.07,3.16,3.16,0,0,0,1.11-.24,7.34,7.34,0,0,0,.89-.49,2.09,2.09,0,0,0,.75-.85c.19-.37.49-.89.92-1.55a12.82,12.82,0,0,1,1.62-2,6.08,6.08,0,0,1,1.58-1.27,4.42,4.42,0,0,1,1.16-.36,13.36,13.36,0,0,1,1.79-.12,6.9,6.9,0,0,1,2.31.36,7.91,7.91,0,0,1,1.89.91,5.1,5.1,0,0,1,1.35,1.35,3.87,3.87,0,0,1,.65,1.24c.06.28.13.77.21,1.46a8.08,8.08,0,0,1,0,2A29.25,29.25,0,0,1,329.57,194.54Z"/><path class="ab94931b-29c2-4738-a954-254cd8f5bddc" d="M331.94,180.72a3.42,3.42,0,0,1-1.2,1.38,3.13,3.13,0,0,1-1.56.06l-1.61-.24c-.35-.07-1.5-.33-3.46-.8l-11.62-2.05a19.76,19.76,0,0,1-4.12-1.23,1.34,1.34,0,0,1-.65-1.19,2.21,2.21,0,0,1,.46-1.41,7.77,7.77,0,0,1,4.49-.59c1.71.22,3.28.4,4.73.54a28.22,28.22,0,0,1,.77-3.24,6.43,6.43,0,0,1,2.26-3,8.22,8.22,0,0,1,3.49-.81h2.77a26.88,26.88,0,0,1,3.77.51c1.89.33,2.93.68,3.14,1.05a1.83,1.83,0,0,1,.11,1.35,7.11,7.11,0,0,1-.72,1.76c-.34.63-1.42.78-3.24.46s-3-.55-3.6-.69a3.57,3.57,0,0,0-2,.19,3.83,3.83,0,0,0-1.56.91,5.3,5.3,0,0,0-.81,2.05,7.67,7.67,0,0,0,2.6.47,7.42,7.42,0,0,1,2.2-.07,20.55,20.55,0,0,1,4.17.66,3.72,3.72,0,0,1,1.45,2.12A3.89,3.89,0,0,1,331.94,180.72Z"/><path class="ab94931b-29c2-4738-a954-254cd8f5bddc" d="M334.88,163.62a11.83,11.83,0,0,1-.82,1.22,6.55,6.55,0,0,1-1.39.87,2.86,2.86,0,0,1-2.08.33q-.94-.25-1.68-.48a4.14,4.14,0,0,1-1.31-.66,2.8,2.8,0,0,1-.89-1.28,3.84,3.84,0,0,1-.17-1.9c.1-.7.16-1.38.19-2a3,3,0,0,0-.29-1.6,2.83,2.83,0,0,0-.68-.87,1.84,1.84,0,0,0-.81-.35,4.51,4.51,0,0,0-1.14,0,1.18,1.18,0,0,0-.95.48,2.47,2.47,0,0,0-.34.81,1.27,1.27,0,0,0,.17.82,7.28,7.28,0,0,0,1.06,1.35,4.38,4.38,0,0,1,1,1.39,6.93,6.93,0,0,1,.26,1,1.62,1.62,0,0,1,0,.91,2.57,2.57,0,0,1-.93,1,2.21,2.21,0,0,1-2,.15,3.55,3.55,0,0,1-1.78-1.11,4.45,4.45,0,0,0-1.23-1.14,3.24,3.24,0,0,1-1.1-1.14,3,3,0,0,1-.43-1.41c0-.48,0-1,0-1.47a7.57,7.57,0,0,1,.51-2.23,4.3,4.3,0,0,1,1.31-2.09,8.18,8.18,0,0,1,2-1.08,7.88,7.88,0,0,1,4,.05,15.09,15.09,0,0,0,5.27.1,34.2,34.2,0,0,1,5.14-.45c.55.2.83.43.82.7s-.25.65-.74,1.15a7.31,7.31,0,0,1-1.4,1.14,2.83,2.83,0,0,0-.95.89c1,1,1.61,1.69,1.8,1.94a2.45,2.45,0,0,1,.33,1.31,7.16,7.16,0,0,1-.2,1.93Q335.06,162.76,334.88,163.62Zm-2.15-3.39a1.88,1.88,0,0,0-.54-.46,2.47,2.47,0,0,0-.72-.26,1,1,0,0,0-.79.23,1.18,1.18,0,0,0-.43,1,2.21,2.21,0,0,0,.23,1.16,2.07,2.07,0,0,0,.91.8,2.36,2.36,0,0,0,1-.78A2.24,2.24,0,0,0,332.73,160.23Z"/><path class="ab94931b-29c2-4738-a954-254cd8f5bddc" d="M337.55,147.83a2.75,2.75,0,0,1-1.13,1.22,2.67,2.67,0,0,1-1.59,0c-.7-.17-1.41-.32-2.11-.44l-6-1.4a37.61,37.61,0,0,0-5.42.09,14,14,0,0,1-4.07-.08,4.39,4.39,0,0,1-2.28-1.29,4.3,4.3,0,0,1-1.11-2,4,4,0,0,1,.07-2,3.1,3.1,0,0,1,1.42-1.32,6.11,6.11,0,0,1,3.29-.15c1.55.22,2.7.4,3.46.53s2.76.76,6,1.86a1.47,1.47,0,0,0-.39-1.1,16.89,16.89,0,0,0-2.64-2.39,13.64,13.64,0,0,1-2.95-3,2.08,2.08,0,0,1-.27-2.18,2.73,2.73,0,0,1,2-1,5.57,5.57,0,0,1,2.91.69,6,6,0,0,1,2.6,2.75l1.75,3,2-1.53a6.21,6.21,0,0,1,2.55-1.89,4.34,4.34,0,0,1,3-.4,1.54,1.54,0,0,1,.62,1.77,8.48,8.48,0,0,1-.63,2.25,5.31,5.31,0,0,1-1.72,1.54,11.9,11.9,0,0,1-2,.86l-3.34,1L337,144a2,2,0,0,1,1.17,2A5,5,0,0,1,337.55,147.83Z"/><path class="ab94931b-29c2-4738-a954-254cd8f5bddc" d="M341.59,127a11.69,11.69,0,0,1-1.74,3.87,3.75,3.75,0,0,1-2.16,1.44,15,15,0,0,1-3.79,0,25.46,25.46,0,0,1-4.54-.74,15.88,15.88,0,0,1-3.17-1.16,4.59,4.59,0,0,1-1.88-1.77,7.06,7.06,0,0,1-.87-2.44,5.23,5.23,0,0,1,.31-2.65,8.83,8.83,0,0,1,1.16-3.14,5.69,5.69,0,0,1,2.23-2.13,9,9,0,0,1,2.46-.9,5.44,5.44,0,0,1,2.34.17,2.22,2.22,0,0,1,.88,1.28,15.47,15.47,0,0,1,.19,2.23,8.7,8.7,0,0,1-.17,2.32,7.13,7.13,0,0,1-.41,1.24,4.42,4.42,0,0,0,0,2,5,5,0,0,0,2.8.54,4.61,4.61,0,0,0,1.41-.62,2.8,2.8,0,0,0,.95-1.21,1.91,1.91,0,0,0,.13-1.48,2.27,2.27,0,0,0-.64-1,7.42,7.42,0,0,1-.92-1,4.65,4.65,0,0,1-.73-1.19,2.24,2.24,0,0,1,0-1.16,1.32,1.32,0,0,1,.42-.85,1.65,1.65,0,0,1,1-.12,7.15,7.15,0,0,1,1.54.34,4.69,4.69,0,0,1,1.6.94,6.26,6.26,0,0,1,1.31,1.62,6,6,0,0,1,.67,1.92A12,12,0,0,1,341.59,127Zm-11.9-5.61a1.93,1.93,0,0,0-1.42,0,2.25,2.25,0,0,0-.83,1.18,4.76,4.76,0,0,0-.34,1.86,6.38,6.38,0,0,0,.11,1.39,1.22,1.22,0,0,0,.77.74,2.47,2.47,0,0,0,1.43.17A35,35,0,0,0,329.69,121.42Z"/><path class="e490c25c-d947-4435-a685-61a8ceaae68f" d="M306.41,126.94a71,71,0,0,1-2.66,15.91,66.38,66.38,0,0,0-2,7.45c-.86,5.33.22,10.81-.55,16.15-.51,3.48-1.79,6.8-2.5,10.24a76.67,76.67,0,0,0-1.09,10c-.57,7.52-1.67,15-2.77,22.44-.59,4-1.18,8-2,12-3.12,15-10.84,27.73-15.76,42a61.91,61.91,0,0,0-2.49,8.62,73.38,73.38,0,0,0-.9,8.88,523.06,523.06,0,0,1-7.34,57.25q-1.58,8.92-3.32,17.81a22.29,22.29,0,0,1-1.28,4.67c-1.57,3.58-5,6.38-5.52,10.26,0,.23-13.95,3.49-15.35,3.82-12.06,2.87-24.42,3.93-36.75,4.56q-3,.15-6,.19t-6-.19c-12.3-.63-24.71-1.7-36.75-4.56-4.8-1.14-10.15-2.21-14.65-4.25-3.54-1.61-4.55-5.25-5.43-8.92l-2.19-9.17c-3.08-12.88-6.16-25.75-8.69-38.74a99.09,99.09,0,0,1-2.31-18.68c0-3.26.27-6.53.24-9.8a103.28,103.28,0,0,0-1.18-12.76c-.65-4.8-1.31-9.66-3-14.21-1.06-2.82-2.5-5.49-3.76-8.23a70.12,70.12,0,0,1-4.72-15c-1.08-5.07-2.83-10.12-4-15.22-1.73-7.46-3.07-15-4.41-22.55q-2.62-14.82-5.26-29.63c-.42-2.39-.84-4.77-1.27-7.16-1.69-9.56-3.39-19.13-4.75-28.74-.62-4.33-1.44-13.44,4.13-15.33a63,63,0,0,0,13.62,4.73,42.72,42.72,0,0,0,6.15,1c3.5.32,7,.41,10.52.65a43.77,43.77,0,0,1,4.57.52,85.25,85.25,0,0,0,14.07,1.49c10.44,0,20.87.35,31.31,0,1.75-.06,3.51-.21,5.26-.23,2.69,0,5.38-.08,8.07-.1a22,22,0,0,0,2.57.17c2.62,0,5.23-.06,7.85-.11s5.24.11,7.86.11a22.33,22.33,0,0,0,2.57-.17c2.69,0,5.38.06,8.06.1,1.76,0,3.51.17,5.27.23,10.43.35,20.87,0,31.3,0A85.25,85.25,0,0,0,267.32,123a44.26,44.26,0,0,1,4.58-.52c3.5-.24,7-.33,10.52-.65a43.57,43.57,0,0,0,6.15-1.26c3.23-.75,7.12-1.49,10-3.15,2-1.16,3.82-2.89,6.16-.32,1.59,1.75,1.77,4.32,1.76,6.68C306.5,124.85,306.47,125.9,306.41,126.94Z"/><path class="e490c25c-d947-4435-a685-61a8ceaae68f" d="M97.26,108.18a57.31,57.31,0,0,1,7.22-9.39,29,29,0,0,1,13.4-8,59.28,59.28,0,0,1,17.52-2.53A114.15,114.15,0,0,1,157,90.35c2.89.59,5.75,1.39,8.66,1.91,6.8,1.23,13.62,2.33,20.43,3.52a105.58,105.58,0,0,0,18,1.7c4.72,0,10.29.86,14.77-.78a3.24,3.24,0,0,0,1.65-1.08,1.29,1.29,0,0,0-.25-1.78,1.88,1.88,0,0,0-1.08-.15c-4.68.24-9.34-.77-14-.59a73.85,73.85,0,0,1-12.6-.37c-6.74-.88-13.44-2.1-20.13-3.29-4.53-.81-9-1.77-13.53-2.78A115,115,0,0,0,142,84.39a6.56,6.56,0,0,1-1.16-.29,12.31,12.31,0,0,1,1.29-7.75,11.52,11.52,0,0,1,4.92-5.59,35.86,35.86,0,0,1,15.38-4.29c.65,0,1.3-.13,2-.17a23.47,23.47,0,0,1,3.24-.13c7.32.61,13.89,3.53,21.11,4.72a10.86,10.86,0,0,0,4.32.12,2.45,2.45,0,0,0-1-2.29,7.32,7.32,0,0,0-2.37-1.09L186,66.46a117.7,117.7,0,0,0-16.74-4.17c-1.49-.26-3-.33-4.6-.48a10.64,10.64,0,0,1,1.09-5.5c2.53-6.57,7.15-11.51,12.46-15.89,3.45-2.84,7.53-4.49,11.7-5.87a21.21,21.21,0,0,1,4.21-.74,3,3,0,0,1,3,1.34c-.56,1.82-1.11,3.48-1.59,5.17a10.92,10.92,0,0,0,.54,7.4,13.34,13.34,0,0,0,8.19,7.58A37.84,37.84,0,0,0,219.78,58a22.54,22.54,0,0,1,7.48,1,45.49,45.49,0,0,1,14.32,7.19A15.92,15.92,0,0,1,246,71.81a4.64,4.64,0,0,1-3.08,6.74,35.56,35.56,0,0,1-3.59.45c-3.69.54-7.43.88-11.05,1.73-8.91,2.1-17.22,2.49-26.29,2.64a1.66,1.66,0,0,0-1.47.54c-.47.77.5,1.62,1.34,2a24.48,24.48,0,0,0,7.69,1.4,59.44,59.44,0,0,0,16.73-1.9,77.12,77.12,0,0,1,17.87-2.53c.88,0,1.75-.16,2.63-.19a24.35,24.35,0,0,1,3,0c2.3.18,4.59.5,6.89.64a50.35,50.35,0,0,1,13.44,2.95c1.56.53,3.13,1,4.72,1.41a43.85,43.85,0,0,1,15.58,6.76,24.09,24.09,0,0,1,7.94,9.69c1.86,4.12,3.34,8.78-1.74,10.29-4.2,1.24-8.35,2.71-12.73,3.23a23.53,23.53,0,0,1-4.25.36c-3.55-.24-7,.44-10.48.87-2.83.36-5.63,1-8.45,1.38a19.54,19.54,0,0,1-2.95.23l-33,.15c-1.21,0-2.42-.06-3.62-.15a169,169,0,0,0-22.72-.09H198a159.54,159.54,0,0,0-22.72.09c-1.2.09-2.41.16-3.62.15q-16.49-.06-33-.15a19.44,19.44,0,0,1-2.95-.23c-2.82-.43-5.62-1-8.45-1.38-3.48-.43-6.93-1.11-10.48-.87a23.45,23.45,0,0,1-4.25-.36c-4.39-.52-8.54-2-12.74-3.23a8.49,8.49,0,0,1-4.28-2.23A10.62,10.62,0,0,1,97.26,108.18Z"/><path class="fa6002b8-2c30-494d-ac37-315d226f0718" d="M264.94,73.43a39.26,39.26,0,0,0,.27-7.19c-.13-2.48-.63-4.94-1-7.36,1.12-.86,2.22-.42,3.3-.41,1.33,1,1.6,2.57,1.83,4.07a27.1,27.1,0,0,1-4.19,19c-.63-.23-1.2-.42-1.81-.63C263.94,78.29,264.63,75.89,264.94,73.43Z"/><path class="a96522ce-f89e-4657-9a71-d45e6d88c28a" d="M298.32,123.65a3.79,3.79,0,0,1,.94,2,17.53,17.53,0,0,1,.34,7.79c-1.08,5.12-2.71,15.33-2.71,15.33s-1.7,9.05-2.53,13.58c-1,5.25-2.4,15.76-2.4,15.76l-4.48,28.68s-2.16,14.08-4.05,21c-2.85,10.45-8.9,19.85-11,30.5-.82,4.14-1,8.37-1.67,12.53-.58,3.74-1.53,7.41-2.11,11.15s-.79,7.41-1.05,11.13a331.31,331.31,0,0,1-8.4,54.81c-2.14,8.79-13.28,10.59-20.91,12.27-3.38.74-6.77,1.49-10.2,1.95s-7,.63-10.45.78c-5.88.25-11.76.42-17.64.25-5.39-.15-10.83-1.33-16.16-1.33a141.33,141.33,0,0,1-32-3.71c-3.06-.7-8.41-.91-11.08-2.69-3.13-2.08-3.67-8.22-4.31-11.58q-2.9-15.16-4.8-30.5c-1.25-10.05-2.17-20.13-3.55-30.16-1.27-9.31-3.34-18.1-5.31-27.17-1.88-8.62-6.21-16.71-8.74-24.91a134.25,134.25,0,0,1-5.23-24.72c-1-9.48-2.88-18.83-4.27-28.25-.78-5.28-1.86-10.51-2.82-15.76-.83-4.53-1.62-9.07-2.54-13.58-1-5.12-1.83-10.21-2.91-15.33a17.65,17.65,0,0,1,.12-7.79,3.58,3.58,0,0,1,2.79-2.46,60.14,60.14,0,0,0,13,4.51,43.36,43.36,0,0,0,5.87,1c3.33.3,6.69.81,10,1,1.46.1,2.92,0,4.36.28a81.57,81.57,0,0,0,13.42,1.22c9.95,0,19.9.33,29.85,0,1.68-.06,3.35-.2,5-.23l7.69-.09a18.44,18.44,0,0,0,2.45.16c2.5,0,5-.05,7.5-.1s5,.1,7.49.1a18.44,18.44,0,0,0,2.45-.16L216,131c1.67,0,3.34.17,5,.23,9.95.33,19.9,0,29.85,0a81.83,81.83,0,0,0,13.42-1.43c1.44-.24,2.9-.39,4.36-.49,3.34-.23,6.7-.32,10-.62a43.36,43.36,0,0,0,5.87-1,61.66,61.66,0,0,0,12-4A1.47,1.47,0,0,1,298.32,123.65Z"/><path class="b77b040f-c67b-4cee-a728-2293839be4a7" d="M252.52,362.36a5.81,5.81,0,0,1,3.28,1.78c6.31,6.95-11.34,9.88-14.88,10.72-12.06,2.87-24.42,3.72-36.75,4.35q-3,.15-6,.19t-6-.19c-12.3-.63-24.71-1.49-36.75-4.35-4.66-1.1-10.95-2.41-15.07-4.93a4.91,4.91,0,0,1,.06-8.58c2.62-1.47,5.87-1,8.81-.32,5.24,1.15,10.29,2.72,15.64,3.29,5.57.6,11.17.73,16.77.87,7.27.17,14.49,1.09,21.77,1.1,1.91,0,3.83-.05,5.74-.09l4.39-.11a117.69,117.69,0,0,0,17.6-1.32c4.6-.81,9.16-2.18,13.86-2.27C247.36,362.46,250.13,361.89,252.52,362.36Z"/><path class="a96522ce-f89e-4657-9a71-d45e6d88c28a" d="M101.86,110.73a58.17,58.17,0,0,1,7.22-9.39,29,29,0,0,1,13.4-8A59.6,59.6,0,0,1,140,90.8a115,115,0,0,1,21.59,2.1c2.89.6,5.75,1.39,8.66,1.92,6.8,1.22,13.62,2.32,20.43,3.52a105.58,105.58,0,0,0,18,1.7c4.72,0,10.29.86,14.77-.78a3.19,3.19,0,0,0,1.65-1.09,1.28,1.28,0,0,0-.25-1.77,1.88,1.88,0,0,0-1.08-.15c-4.68.23-9.34-.77-14-.6a73,73,0,0,1-12.61-.37c-6.73-.87-13.43-2.09-20.12-3.29-4.53-.81-9-1.77-13.53-2.78a117.71,117.71,0,0,0-16.93-2.27,6.56,6.56,0,0,1-1.16-.29,12.28,12.28,0,0,1,1.29-7.74,11.55,11.55,0,0,1,4.92-5.6A36,36,0,0,1,167.05,69c.65,0,1.3-.12,1.95-.16a23.49,23.49,0,0,1,3.24-.14c7.32.62,13.89,3.54,21.11,4.72a10.68,10.68,0,0,0,4.32.12,2.44,2.44,0,0,0-1-2.28,6.93,6.93,0,0,0-2.37-1.09L190.64,69a120.47,120.47,0,0,0-16.74-4.17c-1.49-.26-3-.32-4.6-.48a10.68,10.68,0,0,1,1.09-5.5c2.53-6.56,7.15-11.5,12.46-15.88,3.45-2.85,7.53-4.49,11.7-5.87a16.17,16.17,0,0,1,4.2-.74c1.63-.08.9,1.14.38,2.19a9.27,9.27,0,0,0-.75,3.84,10.62,10.62,0,0,0,1,5.38c1.1,2,2,4.35,3.58,6.11s3.72,1,6,1.85c5,1.86,10.1.86,15.45.56,2.56-.14,5,2.39,7.48,3.09,5.23,1.5,9.95,6.12,14.32,9.31a7,7,0,0,1,1.57,9.68A15.86,15.86,0,0,1,246,80.52l-.71.75c-.64.68-1.32.33-2.16.4-1.16.1-2.33.31-3.49.47a66.22,66.22,0,0,0-6.71,1.15c-8.91,2.1-17.22,2.49-26.29,2.63-.55,0-1.19.08-1.47.54-.47.77.5,1.63,1.34,2a24.49,24.49,0,0,0,7.69,1.41,59.81,59.81,0,0,0,16.73-1.9,77.67,77.67,0,0,1,17.87-2.54c.88,0,1.75-.16,2.63-.19a26.57,26.57,0,0,1,3,0c2.3.18,4.59.51,6.89.64a50.76,50.76,0,0,1,13.44,3c1.55.53,3.13-.44,4.72-.08C285,90,290.22,93.85,295,97.18a23.41,23.41,0,0,1,7.94,9.48c1.86,4.11,3.06,7.87-2,9.38-4.2,1.24-8.07,3.62-12.45,4.13a23.55,23.55,0,0,1-4.25.37c-8.08-.55-15.29.66-18.32,8.78a96,96,0,0,0-5.9,27.6,21.5,21.5,0,0,1-1.08,6.83c-.88,2.15-2.76,4.07-5.08,4.22s-4.27-1.34-5.64-3.11c-2.61-3.36-3.48-7.76-3.68-12s.19-8.52-.22-12.75a10.85,10.85,0,0,0-1.53-5.09,4.68,4.68,0,0,0-4.57-2.18c-1.75.36-3,1.93-4.4,3a8,8,0,0,1-12.38-4.57c-.41-1.66-.28-3.4-.61-5.08-1.25-6.3-13-3.51-17.77-3.22h-.46a156.52,156.52,0,0,0-22.71.09c-1.2.09-2.41.15-3.62.15q-16.48-.06-33-.16a19.43,19.43,0,0,1-3-.22c-2.82-.44-5.62-1-8.45-1.38-3.48-.44-6.93-1.11-10.48-.87a23.47,23.47,0,0,1-4.25-.37c-4.39-.51-8.54-2-12.74-3.23a8.56,8.56,0,0,1-4.29-2.23A10.8,10.8,0,0,1,101.86,110.73Z"/><path class="ac519c80-1e72-42ef-bb18-ce59f36b4269" d="M234.77,90.55A27.33,27.33,0,0,1,246.33,81a13,13,0,0,1,7.4-1,5.7,5.7,0,0,1,3.51,1.65c2,2.3,4.71,3.14,7.39,4.11,1.34.49,2.74.8,4.09,1.24,5.34,1.76,9.12,5.14,10.95,10.54.36,1,.69,2.08,1,3.15.54,2.18.52,7.29-1.45,9s-6.3-.59-8.46-1.2a181.54,181.54,0,0,1-20.47-6.75c-3.72-1.53-7.67-3.29-11.62-2.51a24.19,24.19,0,0,1-3.34.7,3,3,0,0,1-2.93-1.37,3.63,3.63,0,0,1-.09-2.46A16.78,16.78,0,0,1,234.77,90.55Z"/><path class="bd9ef4ba-0c95-41cb-83fe-37780b9a96b2" d="M257.6,351.47c.07-2.67-2.24-3.88-4.51-4.77l-.59-.23c-1.71-.66-3.42-1.31-5.18-1.8-18-5-38.24-3.15-56.75-2.15-9.73.53-19.49.66-29.18,1.74-5.86.65-12.75,1.2-18.23,3.53-2.68,1.14-4.39,3.23-4.32,5.36a6.23,6.23,0,0,0,1.93,2.26c2.67,1.78,8,2,11.08,2.69a141.33,141.33,0,0,0,32,3.71c5.33,0,10.77,1.17,16.16,1.33,5.88.17,11.76,0,17.64-.25,3.49-.15,7-.32,10.45-.78s6.82-1.21,10.2-1.95C244.75,358.74,253.69,357.21,257.6,351.47Z"/><path class="b0033d4d-0ae9-49ce-b202-ac506239250f" d="M235,75.49c-4.28,3.28-10.48,3.33-15.48,4.72a40.21,40.21,0,0,1-7.71,1.3c-3,.24-5.92.76-8.9,1a1.57,1.57,0,0,0-1,.34,1,1,0,0,0,.29,1.45c1.65,1.19,6.35.16,8.3.06,3.15-.18,6.29-.48,9.41-.92,5.5-.76,10.86-2.54,16.36-3.17,4.16-.47,9.56-.09,11.64-4.65,1.55-3.4-.15-6.46-2.84-8.65-1.13-.75-2.27-1.46-3.45-2.11a14.85,14.85,0,0,0-3.88-1.21A9.88,9.88,0,0,1,235,75.49Z"/><path class="b0033d4d-0ae9-49ce-b202-ac506239250f" d="M191.06,67a7.42,7.42,0,0,0-.89-1c-2-1.83-5.38-2.25-7.77-3.56-6.33-3.49-1.31-14.2,2.14-17.94a38.27,38.27,0,0,0,2.6-2.81,1.39,1.39,0,0,0,.38-1.09.72.72,0,0,0-.33-.46A26,26,0,0,0,182.85,43c-5.31,4.38-9.93,9.32-12.46,15.88a11.74,11.74,0,0,0-1.14,4.94,2.23,2.23,0,0,0,1.33.61c.76.07,1.52.17,2.27.28q.54.06,1.05.15c1.53.27,3,.55,4.44.86.62-.06,1.14-.47,1.72-.42a20.25,20.25,0,0,1,2.73,1,7.12,7.12,0,0,1,1.61.61c.2.12.39.26.58.4,1.86.51,3.72,1.07,5.66,1.69l2,.63a.61.61,0,0,1,0-.12A12.21,12.21,0,0,0,191.06,67Z"/><path class="b0033d4d-0ae9-49ce-b202-ac506239250f" d="M302.27,107A25.35,25.35,0,0,0,294.35,97c-4.77-3.33-9.33-7.59-15-8.88-1.21-.28-2.42,1.47-3.61,1.08a4.68,4.68,0,0,0,1.41,1.77c3,2.6,5.67,5.92,6.15,9.85.67,5.51-3.11,8.39-8,9.53-6.72,1.56-13.07-2-19.38-4.15-.53-.18-1.18-.34-1.59,0-.61.56-.05,1.56.53,2.15a30.92,30.92,0,0,0,13.94,8.47c1.35.35,2.74.58,4.12.82l4.14.69A44,44,0,0,0,295,117.14c1.67-.42,4.46-.5,5.92-1.1C303.67,114.88,302.92,110.72,302.27,107Z"/><path class="b0033d4d-0ae9-49ce-b202-ac506239250f" d="M230.94,120.08a5,5,0,0,0-1.31-1.11,38.34,38.34,0,0,0-16.12-4.85c-16.13-1.52-32.64.95-48.81,1.3a577.6,577.6,0,0,1-60.86-1.92c-1.1-.09-3.59,0-3.36,1.6.14.92,3.21,1.63,3.92,1.84a97,97,0,0,0,10.93,3l.9,0q10.38.63,20.76,1.21c14.14.78,28.28,1.43,42.44,1.73l1.8,0a159.82,159.82,0,0,1,21.33,0H203a172.36,172.36,0,0,1,19.31-.13c2.45-.07,5.1,1.21,7.3,1C232.41,123.57,232.21,121.58,230.94,120.08Z"/><path class="ad5a16a7-a27b-4c81-8a01-3591e7bf0b64" d="M272.64,93c-2.13-3.84-5.67-3.3-9.68-3.82a17.13,17.13,0,0,1-6-2c-.87-.47-2-1-2.76-.36a1.58,1.58,0,0,0-.08,2,4.57,4.57,0,0,0,1.75,1.31l5.72,3a35.19,35.19,0,0,1,6.88,4.31,11.79,11.79,0,0,1,4.15,6.8c.62,3.81,2.94,2.31,2.92-.78a22.88,22.88,0,0,0-2.8-10.38A.75.75,0,0,0,272.64,93Z"/><path class="f446fc91-4f63-477c-b26c-c72dac679994" d="M278.91,141.76c-3.15,8.35-3.54,19.51-4.72,27.94-1.31,9.45-2.28,18.94-3.38,28.41-.42,3.59-.8,7.19-1.18,10.78-.43,4-.84,8.07-1.31,12.51a3.13,3.13,0,0,0,1,2.6,1.89,1.89,0,0,0,3.14-.9,9.14,9.14,0,0,0,.06-1.29,580.9,580.9,0,0,1,12.39-79.69c.48-2.1.34-5.15-1.8-5.37-1.39-.15-2.46,1.19-3.07,2.44C279.61,140,279.25,140.87,278.91,141.76Z"/><path class="f446fc91-4f63-477c-b26c-c72dac679994" d="M260.45,270.72c-.68,4.58-1.26,9.19-1.7,13.76q-1.35,14.07-2.64,28.14-.36,3.76-.7,7.53c-.16,1.32.3,2.08,1.27,2.26a2.1,2.1,0,0,0,2.38-1.32,6.08,6.08,0,0,0,.37-1.26c.16-1,.32-1.94.41-2.92.31-3.28.58-6.55.88-9.83,1.32-14.82,4.46-29.15,3.53-44.15a3.13,3.13,0,0,0-.46-1.7,1.08,1.08,0,0,0-1.55-.25,1.56,1.56,0,0,0-.33.85C261.38,264.77,260.9,267.74,260.45,270.72Z"/><path class="f446fc91-4f63-477c-b26c-c72dac679994" d="M256.12,332.53a2.4,2.4,0,0,0-2,2.2,1.76,1.76,0,0,0,1.69,1.64c1.06,0,1.36-1,1.36-2.14C257.14,333.41,256.91,332.52,256.12,332.53Z"/><path class="f446fc91-4f63-477c-b26c-c72dac679994" d="M129.55,138.68c-5.83-.8-13.73-4.52-19.47-1.85-6.3,2.93-6,10-4.45,15.67,2.23,8,2.65,16.75,4.08,25.05a337.91,337.91,0,0,0,13.59,52.94c.52,1.51,2.09,3.34,3.3,2.31a2.44,2.44,0,0,0,.53-2.07c-.46-6-1.53-11.89-1.93-17.92q-.84-12.76-2.43-25.45c-2.1-16.66-3.23-38,18-40.68,5.29-.67,10.64-.39,16-.7a8,8,0,0,0,3.9-.95,3,3,0,0,0,1.35-3.48c-.72-1.61-2.91-1.74-4.67-1.65A150.38,150.38,0,0,1,129.55,138.68Z"/><path class="f446fc91-4f63-477c-b26c-c72dac679994" d="M158.22,348.46c-10.93-4.18-9.6-20.84-12-30.59-1.77-7.17-3.54-14.38-4.1-21.74-.29-3.88-.25-7.78-.75-11.63A30,30,0,0,0,137,273.07c-.4-.67-.93-1.42-1.71-1.44a1.57,1.57,0,0,0-1.39,1.16,4.48,4.48,0,0,0-.07,1.93c2.35,21.39,3.82,43,8.94,64.09,1.08,4.47,2.17,9.43,6.12,12.05a19.85,19.85,0,0,0,13.44,2.9c1.12-.16,2.43-.61,2.68-1.71a2.17,2.17,0,0,0-1.29-2.22,9,9,0,0,0-2.67-.62A14.73,14.73,0,0,1,158.22,348.46Z"/><path class="b77b040f-c67b-4cee-a728-2293839be4a7" d="M110.82,51.8c-1.17-.54-2.19-.94-3.16-1.46a35,35,0,0,0-10.54-3.58A78.37,78.37,0,0,1,86,43.8a11.6,11.6,0,0,0-1.88-.57c-6.56-1-12.68-3.46-19-5.4-1.2-.37-2.56-.62-3.5-1.89a54.28,54.28,0,0,1,2.27-11.18,10.23,10.23,0,0,1,2.43,0c4.44,1.2,8.86,2.47,13.28,3.73,1.68.49,3.34,1.06,5,1.55,6,1.75,12,3.42,18,5.23,4.61,1.4,9.18,3,13.75,4.47a10,10,0,0,1,1.75,1C115.13,44.18,113.5,48.31,110.82,51.8Z"/><path class="b77b040f-c67b-4cee-a728-2293839be4a7" d="M117.7,55.36c-1-.61-2.22-.65-2.76-2.08,1.48-2.64,3-5.42,4.61-8.13a7.83,7.83,0,0,1,2-2.15,2.25,2.25,0,0,1,1.8-.39c2.64,1,5.29,2.12,6.88,4.9C125.61,49.46,121.71,52.43,117.7,55.36Z"/><path class="b77b040f-c67b-4cee-a728-2293839be4a7" d="M120.82,58.3a44.29,44.29,0,0,1,10.92-7.53A19.55,19.55,0,0,1,133.67,57c-3.78,1.43-7.79,1.82-11.22,4.3Z"/><path class="b77b040f-c67b-4cee-a728-2293839be4a7" d="M123.84,64.42c3.68-1.13,7-3.13,10.83-3.44,1.69,3.2,9.63,26.2,10.68,30.89-.21.18-.42.5-.69.58a8.38,8.38,0,0,0-4.31,3.4A8.46,8.46,0,0,1,138,98.43l-3.3-.69Z"/><path class="f446fc91-4f63-477c-b26c-c72dac679994" d="M219.22,63.3c-6.44-.52-13.68.49-18.27-4.06-.86-.84-1.57-1.94-2.71-2.33s-2.74.64-2.25,1.74c5,11.26,17.78,10.15,27.95,10.24,1.56,0,3.67-.49,3.63-2,0-1-1-1.69-2-2.11A19.19,19.19,0,0,0,219.22,63.3Z"/><path class="f446fc91-4f63-477c-b26c-c72dac679994" d="M166.38,74.29c-.75,0-1.49,0-2.24.11-2.89.25-7.92,2.63-7.76,6.11.1,2,2.21,4,4.2,3.51,2.61-.59,2-4.11,4.11-5a3.83,3.83,0,0,1,1.65-.2,51.16,51.16,0,0,0,7.73-.43c.93-.12,2.13-.59,2-1.53-.08-.67-.83-1-1.48-1.24A26.41,26.41,0,0,0,166.38,74.29Z"/><path class="f446fc91-4f63-477c-b26c-c72dac679994" d="M120.45,100.94a1.62,1.62,0,0,0-1.26-1.3,2.47,2.47,0,0,0-1.41.35c-2.12,1.07-3.87,2.74-5.79,4.07s-3.71,3.12-4,5.44a2.34,2.34,0,0,0,.57,2.11,2.93,2.93,0,0,0,1.3.57,47.6,47.6,0,0,0,12.65,1.74,19.31,19.31,0,0,0,3.47-.39,3.44,3.44,0,0,0,1.3-.47,1.38,1.38,0,0,0,.67-1.15c0-.91-1.13-1.34-2-1.5-2.31-.41-4.81-.56-6.68-2-2.33-1.76-1-3.21.37-4.93a3.57,3.57,0,0,0,.9-2.14A2.1,2.1,0,0,0,120.45,100.94Z"/><path class="f446fc91-4f63-477c-b26c-c72dac679994" d="M225.74,127.9a.43.43,0,0,0-.15-.15.57.57,0,0,0-.46,0,2.06,2.06,0,0,0-1.19,1.76,4.54,4.54,0,0,0,.47,2.16,4.59,4.59,0,0,0,2.2,2.55c1.69.72,3.73-.43,4.54-2.08.43-.9,3-4.14-.27-2.92-.72.27-1.32.8-2,1a3,3,0,0,1-1.94,0c-.34-.73-.69-1.46-1-2.18A.86.86,0,0,0,225.74,127.9Z"/><path class="f446fc91-4f63-477c-b26c-c72dac679994" d="M253.56,157.83c-.51-.7-1.35-.92-1.77-1.81a4.48,4.48,0,0,1-.32-2.15,11.56,11.56,0,0,0,.05-2.35c-.05-.38-.3-.84-.68-.77a.75.75,0,0,0-.46.38,8.6,8.6,0,0,0-1.2,5.51,22.37,22.37,0,0,0,1.43,5.54c.6,1.67,2.39,1.69,3,0a5.66,5.66,0,0,0,.07-4.07A1.13,1.13,0,0,0,253.56,157.83Z"/><path class="f446fc91-4f63-477c-b26c-c72dac679994" d="M247.51,107a22.91,22.91,0,0,0-16.09-1.44,4.44,4.44,0,0,0-2.22,1.18,1.44,1.44,0,0,0-.37.8,1.34,1.34,0,0,0,1,1.26,4.25,4.25,0,0,0,1.74,0c7.33-.82,11.84,1.46,18.52,4.08,1.56.62,3.12,1.23,4.72,1.73a1.89,1.89,0,0,0,1.28.08,1.34,1.34,0,0,0,.52-1.78,3.88,3.88,0,0,0-1.44-1.46A44.92,44.92,0,0,0,247.51,107Z"/><path class="f446fc91-4f63-477c-b26c-c72dac679994" d="M152.12,98a13,13,0,0,0-3.88-.05,2.59,2.59,0,0,0-1.4.59,1.12,1.12,0,0,0-.25,1.39,1.75,1.75,0,0,0,1.34.54l4.28.39a10.48,10.48,0,0,1,2.38.4,6.49,6.49,0,0,0,1.7.5,1.25,1.25,0,0,0,1.34-.9c.07-.57-.42-1-.9-1.34A12.53,12.53,0,0,0,152.12,98Z"/><path class="f446fc91-4f63-477c-b26c-c72dac679994" d="M138,104.14c-2.5-.12-4.65,0-6.9,1.42a1.61,1.61,0,0,0-.56.54.62.62,0,0,0,.07.72.87.87,0,0,0,.59.16,14.38,14.38,0,0,1,5.73,1,4.21,4.21,0,0,0,3.2.24c1.74-.79,1.93-3.23,3.29-4.56a7.08,7.08,0,0,0,.84-.8,1,1,0,0,0,.16-1.09.91.91,0,0,0-1-.36,2.18,2.18,0,0,0-1,.56,16.16,16.16,0,0,1-2.29,2,3.08,3.08,0,0,1-1.68.22Z"/><path class="f446fc91-4f63-477c-b26c-c72dac679994" d="M241.92,219.32a3.77,3.77,0,0,0-2.59-1.07h-.25a3.74,3.74,0,0,0-2.59,1.07,4,4,0,0,0-1.07,2.59,3.68,3.68,0,0,0,1.07,2.59,3.8,3.8,0,0,0,2.59,1.07h.25a3.79,3.79,0,0,0,2.59-1.07,4.1,4.1,0,0,0,1.08-2.59A3.73,3.73,0,0,0,241.92,219.32Zm-1.56,3.38a1.43,1.43,0,0,1,0-2.86A1.43,1.43,0,0,1,240.36,222.7Z"/><path class="f446fc91-4f63-477c-b26c-c72dac679994" d="M248.79,212.54c-3.83,0-3.84,6,0,6S252.62,212.54,248.79,212.54Zm.89,2.89a.94.94,0,0,1,0-1.87A.94.94,0,0,1,249.68,215.43Z"/><path class="f446fc91-4f63-477c-b26c-c72dac679994" d="M243.68,203.8c-3.24,0-3.25,5,0,5S246.92,203.8,243.68,203.8Z"/><path class="f446fc91-4f63-477c-b26c-c72dac679994" d="M252.62,200.17c-2.65,0-2.65,4.12,0,4.12S255.28,200.17,252.62,200.17Z"/><path class="f446fc91-4f63-477c-b26c-c72dac679994" d="M261.72,193.65a2.74,2.74,0,0,0-3.89,0,2.83,2.83,0,0,0-.8,1.94v.25a2.88,2.88,0,0,0,.8,1.95,2.83,2.83,0,0,0,1.95.8,2.76,2.76,0,0,0,1.94-.8,2.88,2.88,0,0,0,.8-1.95v-.25A2.79,2.79,0,0,0,261.72,193.65Zm-.92,2.19a.76.76,0,0,1,0-1.52A.76.76,0,0,1,260.8,195.84Z"/><path class="f446fc91-4f63-477c-b26c-c72dac679994" d="M250.72,182.67a3.92,3.92,0,0,0-2.3-2.3,3.24,3.24,0,0,0-1.68-.37l-1.15.15a4.34,4.34,0,0,0-1.92,1.12,4.53,4.53,0,0,0-1.27,3.08v.25a3.24,3.24,0,0,0,.37,1.68,3.28,3.28,0,0,0,.9,1.4,4.8,4.8,0,0,0,3.07,1.27l1.16-.15a4.34,4.34,0,0,0,1.92-1.12,4.53,4.53,0,0,0,1.27-3.08v-.25A3.24,3.24,0,0,0,250.72,182.67Zm-1.7.6a.91.91,0,0,1-.11.3,1.27,1.27,0,0,1-.24.28.91.91,0,0,1-.49.35,1,1,0,0,1-1.12-.16.79.79,0,0,1-.26-.71,1,1,0,0,1,.34-1.06,1.14,1.14,0,0,1,.67-.22H248a.92.92,0,0,1,1,.43A1,1,0,0,1,249,183.27Z"/><path class="ba021279-9a7e-49d0-9070-223aa0b7f177" d="M166.14,193.23a14.33,14.33,0,0,1-5.75-.08c.4-1.39.65-2.69,1.13-3.89,2.73-6.86,7-12.35,13.84-15.64,2.31-1.11,3.72-.13,5.93.54a8.22,8.22,0,0,0,2.8.15,3.3,3.3,0,0,0,1.5-.33,1.12,1.12,0,0,0,.55-1.32,1.54,1.54,0,0,0-.85-.69,32.36,32.36,0,0,1-4.64-2c-.84-.56-1.32-1.42-2.21-2a3.73,3.73,0,0,1-1.64-5.11,9.58,9.58,0,0,1,2-3,15,15,0,0,1,6.34-4c3.23-1,6.56-1.66,9.75-2.45a1.83,1.83,0,0,1-.11,2.88,2.46,2.46,0,0,1-1.55.43c-.52,0-1.17,0-1.39.43s.36,1.05.89,1.27c4.91,2,12.93,1.25,16.17-3.35a2.16,2.16,0,0,0,.5-1.22.92.92,0,0,0-.74-1c-.5,0-.87.43-1.21.79a2.39,2.39,0,0,1-2.14.86c-2.56-.54-.71-4.21.53-5.06.73-.49,1.49-.92,2.22-1.42a32.72,32.72,0,0,0,6.24-5.33c1.13-1.27,2.47-1.1,3.09.43a11.51,11.51,0,0,1,.89,3.81,26,26,0,0,1-1.09,8.63c-.87,2.76-2.92,5.29-4.45,7.75a1.05,1.05,0,0,0-.21.5c0,.44.51.73.94.65a2.56,2.56,0,0,0,1.11-.7c1.61-1.42,4.88-3.76,7.09-4,1.88-.17,3.57,3.53,4,5.17.85,3.54.36,5.12-2.72,6.9a11.83,11.83,0,0,1-4,1.52,50.05,50.05,0,0,1-9.91.71,3.16,3.16,0,0,0-1.11.08,1.09,1.09,0,0,0-.78.73c-.15.64.47,1.18,1.05,1.5,4,2.22,8.61,1.56,12.88.6a3.78,3.78,0,0,1,2.52.22,14.81,14.81,0,0,1,7.47,7.1,23.21,23.21,0,0,1,2.58,6.74,33.19,33.19,0,0,1,.29,4.57,1.34,1.34,0,0,1-1.21,1.37c-3.43.48-6.79.4-9.83-1.58a26.49,26.49,0,0,1-7.22-6.66A10.72,10.72,0,0,0,214,187a1.87,1.87,0,0,0-2.85.52,10.31,10.31,0,0,0-1.45,4.67c-.1,1-.05,2-.13,3a17,17,0,0,1-.33,1.83c-3.31.35-8.28-.56-10.63-1.94a12,12,0,0,1-6-9.69,4.19,4.19,0,0,1,.4-1.88,18.15,18.15,0,0,1,1-1.69,1.52,1.52,0,0,0-.3-1.82,1.72,1.72,0,0,0-2.11-.31,10.27,10.27,0,0,0-1.19,1.1c-1.5,1.46-3,2.92-4.49,4.36a25.76,25.76,0,0,1-11.11,6.16C171.94,192,169.05,192.67,166.14,193.23Z"/><path class="bd11c86a-4ac3-4aae-919b-67627553a7d7" d="M228.54,205.23c-4-.07-8-.44-11.95-.49q-7.87-.09-15.73.31l-1.62,0c-1.06,0-2.14,0-3.2,0q-7.86-.39-15.73-.31c-3.63,0-7.27.36-10.91.47.19-1.38.39-2.77.61-4.14,0-.22.05-.44.09-.66.67-3.94.65-4,4.44-5,5-1.29,9.54-3.26,13.31-6.85a1.86,1.86,0,0,1,.6-.28c.86.15.66,1,.89,1.52,1.45,3.4,3.38,6.43,6.68,8.31a14.6,14.6,0,0,0,3.88,1.73,53.29,53.29,0,0,0,8.11,1.3c3.49.24,5.28-1.59,5.42-5.07,0-.82.1-1.65.18-3,4.42,4,8.41,7.78,14.38,8.23a22.75,22.75,0,0,1,.54,3.33C228.54,204.88,228.54,205.05,228.54,205.23Z"/><path class="ba12cdd1-ea8b-454b-953c-dd49592c8158" d="M194.55,322.66c0-.23.09-.46.13-.69a7.91,7.91,0,0,0,5.87,2.06c-.74.73-1.47,1.46-2.22,2.18A18.67,18.67,0,0,1,196,328a7.29,7.29,0,0,1-1.38.56A10.14,10.14,0,0,1,194.55,322.66Z"/><path class="a409fc08-8d2e-4bc8-b813-25af95e6f9c3" d="M204,354.79a25.43,25.43,0,0,0-15.15.47,6.57,6.57,0,0,1-1.63.64,7,7,0,0,1-2.47-1c-1.26-.61-2.56-1.16-3.87-1.65a42,42,0,0,0-7.18-2A36.9,36.9,0,0,1,181.92,335c2.34-2.64,5-5,7.26-7.71.28-.32.54-.66.81-1a12,12,0,0,0,.57,3.51c.74,2.49,2.58,3.42,5.11,2.74a11.88,11.88,0,0,0,5-3c1.59-1.5,3.13-3,4.68-4.57.14,1.27.33,2.54.58,3.8.61,3.18,1.75,6.27,1.94,9.52C208.24,344,206.17,349.54,204,354.79Z"/><path class="bd11c86a-4ac3-4aae-919b-67627553a7d7" d="M225,236.18c-2.89,7.7-5.94,15.35-8.76,23.07a91.24,91.24,0,0,0-4.78,20.13c-.93,7.48-.39,14.9.31,22.34.11,1.1.17,2.19.27,3.28a10.47,10.47,0,0,1-1.11,5.75,16.16,16.16,0,0,1-3.94,5.59c-.95.78-2.07,1.28-3.07,2-1.31.89-2.49,1.8-4.19,1.62-4.66-.48-3.91-5.81-3.69-9,.25-3.65-1.42-7.4-3.61-10.31a33.52,33.52,0,0,1-3-6c-1.88-4-3.78-7.92-5.82-11.8s-4.25-7.44-6.25-11.22c-4-7.48-7.46-15.16-8.92-23.59a46.53,46.53,0,0,1-.87-8.33c5.57,1.74,11,3.61,16.53,3.85,1.33,1.69,2.46,3.31,3.78,4.76,2.92,3.21,6.81,4,10.84,3.52,5.19-.58,8.83-3.59,11.19-8.21a11.29,11.29,0,0,0,1-7.06,17.17,17.17,0,0,0-3.48-8.08c-4.71-5.94-12-5.8-17.16-2.52a48.72,48.72,0,0,0-5.16,4.47A37.56,37.56,0,0,1,167.57,226c0-.6,0-1.14,0-1.68.35-4.82.73-9.65,1.26-14.45.6,0,1.2-.06,1.8-.07,0,0,0,.07,0,.11.81,2.55.79,5.4,2,7.81a5.85,5.85,0,0,0,2.15,2.57c2.27,1.21,4.94,1,7.44,1.07s4.95.43,7.19-.72c3.29-1.69,3.74-7.19,5.49-10a1.53,1.53,0,0,0,.24-.75c.63,0,1.25,0,1.88,0,.92,0,1.83,0,2.74,0,.63,0,1.25,0,1.88,0a1.53,1.53,0,0,0,.24.75c1.75,2.83,2.2,8.33,5.48,10,2.24,1.15,4.79.76,7.2.72s5.16.14,7.44-1.07a5.85,5.85,0,0,0,2.15-2.57c1.25-2.41,1.23-5.26,2-7.81,0,0,0-.07,0-.11.79,0,1.58.05,2.36.11a97.48,97.48,0,0,1-.39,13.23A54.48,54.48,0,0,1,225,236.18Z"/><path class="ffbdbb0f-005b-4a0f-b2ee-b4ce34dc2fea" d="M153.48,253.12c-2.37,1.62-5.23,1.38-7.79.32a17,17,0,0,1-4-2.28,16,16,0,0,0-11.58-3.72,9.25,9.25,0,0,1-1.51-.18,11.74,11.74,0,0,1,1-1.84c4.56-5.4,10.3-7.53,17.28-6.15.43.09.86.15,1.28.28,1.13.33,2.24.73,3.36,1.06.72.21,3.29.33,3.71.9,1.48,2-4.08,1.16-4.8,1a18.6,18.6,0,0,0-8-.32c-.43.08-1,.37-.85.78s.39.37.66.43a41,41,0,0,0,6.22,1,9.87,9.87,0,0,1,5.61,1.82,4.28,4.28,0,0,1,1.44,1.93C156.19,249.93,155.3,251.88,153.48,253.12Z"/><path class="ffbdbb0f-005b-4a0f-b2ee-b4ce34dc2fea" d="M196.1,140.54a2.28,2.28,0,0,1,2.21,1.13,7.76,7.76,0,0,1,1.26,2.94c.28,2.8.31,5.64.4,8.46,0,.14-.25.29-.47.52a52.5,52.5,0,0,0-2.17-6.34,49.66,49.66,0,0,0-3.6-5.49C194.17,140.72,195.1,140.58,196.1,140.54Z"/><path class="ffbdbb0f-005b-4a0f-b2ee-b4ce34dc2fea" d="M167.52,194.14a14,14,0,0,1-5.75-.08,39.06,39.06,0,0,1,1.12-3.88c2.74-6.87,7-12.35,13.84-15.64,2.31-1.12,3.72-.13,5.94.53a8,8,0,0,0,2.8.16,3.23,3.23,0,0,0,1.5-.34,1.11,1.11,0,0,0,.54-1.31,1.5,1.5,0,0,0-.85-.69,32.4,32.4,0,0,1-4.64-2c-.84-.55-1.32-1.42-2.2-2a3.72,3.72,0,0,1-1.64-5.11,9.6,9.6,0,0,1,2-3,15.15,15.15,0,0,1,6.35-4c3.22-1,6.56-1.66,9.74-2.44a1.81,1.81,0,0,1-.11,2.87,2.4,2.4,0,0,1-1.55.43c-.51,0-1.17,0-1.38.44s.35,1,.89,1.27c4.9,2,12.93,1.25,16.16-3.35a2.31,2.31,0,0,0,.51-1.23.93.93,0,0,0-.75-1c-.5,0-.86.42-1.2.79a2.42,2.42,0,0,1-2.15.86c-2.56-.54-.71-4.22.54-5.06.72-.5,1.49-.93,2.21-1.42a32.78,32.78,0,0,0,6.25-5.33c1.12-1.28,2.47-1.1,3.08.42a11.51,11.51,0,0,1,.89,3.81,26,26,0,0,1-1.09,8.64c-.86,2.76-2.92,5.28-4.45,7.74a1.1,1.1,0,0,0-.21.5c0,.44.52.74,1,.65a2.48,2.48,0,0,0,1.1-.69c1.61-1.43,4.89-3.77,7.1-4,1.88-.17,3.57,3.53,4,5.17.86,3.54.36,5.11-2.72,6.89a11.75,11.75,0,0,1-4,1.52,50,50,0,0,1-9.91.72,3.19,3.19,0,0,0-1.11.07,1.11,1.11,0,0,0-.78.73c-.15.64.48,1.18,1.05,1.5,4,2.23,8.61,1.56,12.89.6a3.75,3.75,0,0,1,2.51.23,14.77,14.77,0,0,1,7.47,7.1,22.87,22.87,0,0,1,2.58,6.73,33.34,33.34,0,0,1,.3,4.58,1.35,1.35,0,0,1-1.21,1.37c-3.43.48-6.79.4-9.83-1.59a26.5,26.5,0,0,1-7.23-6.65,9.77,9.77,0,0,0-1.75-1.93,1.86,1.86,0,0,0-2.84.52,10.16,10.16,0,0,0-1.46,4.67c-.1,1-.05,2-.13,3,0,.63-.22,1.25-.32,1.82-3.32.36-8.29-.56-10.64-1.93a12,12,0,0,1-6-9.7,4,4,0,0,1,.39-1.87c.24-.6.69-1.12,1-1.7a1.51,1.51,0,0,0-.3-1.81,1.73,1.73,0,0,0-2.11-.32,10.37,10.37,0,0,0-1.19,1.11c-1.49,1.45-3,2.92-4.48,4.36a26,26,0,0,1-11.12,6.16C173.32,192.93,170.42,193.59,167.52,194.14Z"/><path class="a9fd314d-0c69-4b23-bec9-d7b653c193b5" d="M228.71,206.59c-4-.07-8-.43-12-.48-5.25-.07-10.49,0-15.73.3-.54,0-1.08,0-1.62.05-1.06,0-2.14,0-3.2-.05-5.24-.26-10.48-.37-15.73-.3-3.63,0-7.27.35-10.91.46.19-1.38.39-2.76.61-4.14,0-.22,0-.44.09-.65.67-3.94.65-4,4.44-5,5-1.3,9.54-3.27,13.31-6.86a2.09,2.09,0,0,1,.6-.28c.86.16.66,1,.89,1.52,1.45,3.41,3.38,6.43,6.69,8.31a14,14,0,0,0,3.88,1.73,53,53,0,0,0,8.1,1.3c3.49.24,4.64-1.59,4.79-5.07,0-.82.1-2.07.17-3.37,4.43,3.95,9.47,8.84,15.44,9.29a12.5,12.5,0,0,1,.12,2.69C228.71,206.24,228.71,206.42,228.71,206.59Z"/><path class="abb81c66-6736-47eb-bc45-231641671f5a" d="M195.06,322.75c.05-.23.09-.46.13-.69a8,8,0,0,0,3.23,1.78,7.88,7.88,0,0,0,2.64.28c-.74.73-1.47,1.46-2.22,2.18a18.6,18.6,0,0,1-2.35,1.78,7.92,7.92,0,0,1-1.38.57A10.14,10.14,0,0,1,195.06,322.75Z"/><path class="fa09171d-5c3f-497b-9c69-ed6c18994895" d="M205.1,355a25.35,25.35,0,0,0-15.15.48,6.25,6.25,0,0,1-1.63.63,6.43,6.43,0,0,1-2.47-.62c-1.26-.6-2.55-1.15-3.86-1.65a43.3,43.3,0,0,0-7.19-2.39A37.06,37.06,0,0,1,183,335.23c2.34-2.65,5-5,7.27-7.71.28-.33.54-.67.81-1a12.25,12.25,0,0,0,.56,3.5c.75,2.49,2.58,3.42,5.11,2.75a11.77,11.77,0,0,0,5-3c1.58-1.5,3.13-3,4.68-4.57.14,1.28.33,2.54.57,3.81.62,3.17,1.76,6.27,1.95,9.52C209.34,344.24,207.27,349.79,205.1,355Z"/><path class="a9fd314d-0c69-4b23-bec9-d7b653c193b5" d="M226.44,237.54c-2.9,7.71-5.95,15.35-8.76,23.08a91,91,0,0,0-4.79,20.12c-.92,7.49-.39,14.91.32,22.35.11,1.09.16,2.19.27,3.28a10.53,10.53,0,0,1-1.11,5.74,16.23,16.23,0,0,1-4,5.6c-.94.77-2.07,1.28-3.06,2-1.31.88-2.49,1.79-4.2,1.62-4.65-.49-3.9-5.82-3.68-9a17.44,17.44,0,0,0-3.19-10.94,36.68,36.68,0,0,1-3.26-6.25c-1.88-4-3.15-7.08-5.19-11s-4.24-7.43-6.25-11.21c-4-7.49-8.3-15.17-9.76-23.6-.49-2.84-2.67-10.48,2.19-10.89,1.87-.16,3.65.8,5.51,1.12,1.17.2,2.38.15,3.55.4,3.48.76,5.8,4,8.75,6a12.69,12.69,0,0,0,11.31,1.54,10.87,10.87,0,0,0,7-8.79,12.25,12.25,0,0,0-3.41-9.27c-3.52-3.86-8.67-5-13.14-2.16a48.88,48.88,0,0,0-5.16,4.47A37.62,37.62,0,0,1,169,227.36c0-.61,0-1.15,0-1.69.23-3.11.68-6.28.65-9.4,0-2.75.89-5.29,1.17-8.05,1.2-.43,2.53-.08,3.8-.15,1.45-.09,2.85-.72,4.31-.65s2.76.73,4.2.79,3.24-.25,4.8-.34c3.64-.22,7.29-.39,10.93-.5q11-.33,21.89,0a14.83,14.83,0,0,1,6.31,1.13c5.08,2.57,3.13,11.46,2.61,16A54.37,54.37,0,0,1,226.44,237.54Z"/><path class="b4ec9f2a-0db3-420d-81a2-a04a567ae19a" d="M192.76,228.75a6.27,6.27,0,0,1,4.23-1.14c3.79-.09,6.34,1.72,8.11,4.77a20.46,20.46,0,0,1,1.09,2.38C209.31,242,202,249,195.54,247.68c-4.22-.86-7.38-3.72-7.86-8C187.15,235.05,188.74,231.31,192.76,228.75Z"/><path class="ffbdbb0f-005b-4a0f-b2ee-b4ce34dc2fea" d="M269.24,235.26a18.46,18.46,0,0,0-7.63,7.05c-.43.64-.84,1.29-1.27,1.93a9.63,9.63,0,0,1-7.38,4.42c-2,.19-6.74,1.47-7.74-1s2.48-5,4.26-6.24a28.78,28.78,0,0,1,7.8-4.13.65.65,0,0,0,.29-.14c.2-.19.06-.56-.19-.68a1.35,1.35,0,0,0-.82,0c-3.85.73-6.1,2.51-9.26,4.78-.83.6-6.84,4.3-7.44,2.51-.26-.76,1.86-1.32,2.3-1.56a17,17,0,0,0,5.07-4.28,17.81,17.81,0,0,1,5.86-4.71c3.82-1.92,7.84-2.8,12.09-1.67a10.41,10.41,0,0,1,5.16,3A7.57,7.57,0,0,1,269.24,235.26Z"/><path class="b77b040f-c67b-4cee-a728-2293839be4a7" d="M229.17,218c-1.31,3.09-4.56,4.91-7.56,6.23-4.38,1.93-8.42,1.74-11.77-1.92-3.19-3.49-6.11-6.89-11.24-6.88-4.76,0-8.23,3.62-11.21,6.88-3.35,3.66-7.39,3.85-11.78,1.92-3-1.32-6.25-3.14-7.55-6.23a11.31,11.31,0,0,1,1.31-10.26c2-2.93,5.49-3.55,8.73-4.19a70.46,70.46,0,0,1,11.22-1.26c1.93-.07,3.87-.07,5.8,0,8.06.3,16-.32,24,1.26,3.23.64,6.71,1.26,8.72,4.19A11.31,11.31,0,0,1,229.17,218Z"/><path class="b0585a91-23e5-4da3-b05d-d47e6892f6b8" d="M160.28,226.54c-.2-.45-.49-.8-.47-1.13a25.88,25.88,0,0,1,.52-2.76C161.22,225.31,161.22,225.31,160.28,226.54Z"/><path class="b0585a91-23e5-4da3-b05d-d47e6892f6b8" d="M165.51,233.55c-1.62-.23-2.4-1.2-3.31-2.29l1.44-2.6,2.55,1.33C166,231.21,165.74,232.32,165.51,233.55Z"/><path class="b0585a91-23e5-4da3-b05d-d47e6892f6b8" d="M169.86,231.65l3.44,1.1c-.31,1.58-.54,2.73-.81,4.11l-2.76-.83C169.06,234.52,169.43,233.23,169.86,231.65Z"/><path class="b0585a91-23e5-4da3-b05d-d47e6892f6b8" d="M176.46,236.18c.21-.52.54-1.41.92-2.27.05-.12.39-.17.57-.13s.45.24.45.37a18.36,18.36,0,0,1-.13,2.57c-.18,1.41-.51,1.81-1.09,1.57C176.36,238,176.56,237.24,176.46,236.18Z"/><path class="b0585a91-23e5-4da3-b05d-d47e6892f6b8" d="M182.82,234.44c.65-.05,1,.21.9.74-.17,1.39-.39,2.77-.64,4.52-.53-.45-1-.64-1.05-.92A6.53,6.53,0,0,1,182.82,234.44Z"/><path class="b0585a91-23e5-4da3-b05d-d47e6892f6b8" d="M196,234.5a2.19,2.19,0,0,1,1.24-.29,4.43,4.43,0,0,1,3.57,2,3,3,0,0,1,.2,3.39c-.73,1.19-1.63,2.07-3,1.92a3.83,3.83,0,0,1-3.54-2.69A4,4,0,0,1,196,234.5Z"/><path class="bd11c86a-4ac3-4aae-919b-67627553a7d7" d="M218.25,241.3a6.36,6.36,0,0,0-1.71,2A60.8,60.8,0,0,0,210.69,256c-1.46,4.37-3,9.58-2,14.21.09.39.3.87.71.87s.55-.33.7-.63a21.11,21.11,0,0,0,1.46-5,119.87,119.87,0,0,1,3.88-13.54,43.39,43.39,0,0,1,4.43-9.73c.24-.38.46-.92.12-1.2a.75.75,0,0,0-.57-.13A2.46,2.46,0,0,0,218.25,241.3Z"/><path class="bd11c86a-4ac3-4aae-919b-67627553a7d7" d="M208.07,273.47a1.79,1.79,0,0,0-1.9,1.45,1.74,1.74,0,0,0,1.4,1.92,1.91,1.91,0,0,0,1.94-1.82A1.7,1.7,0,0,0,208.07,273.47Z"/><path class="e03161cc-99ca-4f1c-8c9d-1a81da26ffbb" d="M229.17,218.12c-1.31,3.1-4.56,4.92-7.56,6.24-4.38,1.93-8.42,1.74-11.77-1.92-3.19-3.49-6.11-6.89-11.24-6.88-4.76,0-8.23,3.62-11.21,6.88-3.35,3.66-7.39,3.85-11.78,1.92-3-1.32-6.25-3.14-7.55-6.24a11.24,11.24,0,0,1,1.1-10.25c2-2.93,5.7-3.77,8.94-4.4a70.47,70.47,0,0,1,11.22-1.27c1.93-.06,3.87.15,5.8.22,8.06.3,16-.53,24,1.05,3.23.63,6.92,1.47,8.94,4.4A11.27,11.27,0,0,1,229.17,218.12Z"/><path class="afc284dd-344e-4b88-a8cd-0f3fedf127ca" d="M187.43,214.3a5,5,0,0,0-1.24,2,7.87,7.87,0,0,1-2.4,3.24c-.8.62-2.18.85-2.56,1.89a.75.75,0,0,0,.33.94,1.06,1.06,0,0,0,.77-.11,14,14,0,0,0,4.81-2.9,5.54,5.54,0,0,0,1.66-4.22,1.09,1.09,0,0,0-.34-.8A.78.78,0,0,0,187.43,214.3Z"/><path class="afc284dd-344e-4b88-a8cd-0f3fedf127ca" d="M225.29,213.4c0,.12,0,.25,0,.37-.14,2.31-2.22,6.41-4.46,7.35a4.22,4.22,0,0,0-1.3.62.89.89,0,0,0-.14,1.27c4.75-.73,8.42-5.08,7.22-10a.85.85,0,0,0-.31-.56.64.64,0,0,0-.83.32A1.58,1.58,0,0,0,225.29,213.4Z"/><path class="ab94931b-29c2-4738-a954-254cd8f5bddc" d="M197.93,245.62a7.78,7.78,0,0,0,7.62-7.44c0-2.34-1.22-4.1-2.68-5.79-1.64-1.9-4-1.8-6-2-3.28-.24-6.35,3.48-6.4,7.38A7.48,7.48,0,0,0,197.93,245.62ZM196,234.5a2.19,2.19,0,0,1,1.24-.29,4.43,4.43,0,0,1,3.57,2,3,3,0,0,1,.2,3.39c-.73,1.19-1.63,2.07-3,1.92a3.83,3.83,0,0,1-3.54-2.69A4,4,0,0,1,196,234.5Z"/><path class="ab94931b-29c2-4738-a954-254cd8f5bddc" d="M276.47,234.74c-2.91-3.36-6.22-6.19-10.73-7.22a20.8,20.8,0,0,0-14.06,1.89,21.13,21.13,0,0,0-7.46,5.84,12.12,12.12,0,0,1-8.7,4.74,21.19,21.19,0,0,1-7-.77c1.12-4.21,2.39-8.27,3.27-12.42a43.93,43.93,0,0,0,.87-7.32,11.68,11.68,0,0,0,.91-3.47,15.4,15.4,0,0,0-1-7.56c0-1.22-.1-2.45-.2-3.67-.05-.52.14-3-.2-3.29.74-.2,1.47-.38,2.19-.59a4.86,4.86,0,0,0,3.62-4.24,7.75,7.75,0,0,0,.19-2c-.74-8.24-3.46-15.39-11-19.87-.13-.07-.15-.32-.22-.49a28.34,28.34,0,0,0,1.84-2.32,6.38,6.38,0,0,0,1.13-2.35,12.93,12.93,0,0,0-6.39-13.38c-.64-.35-1.31-.64-1.89-.91.28-2,.55-3.69.77-5.43a15,15,0,0,0-1-7.75c-1.78-4.3-6.48-5.46-10-2.45a23.23,23.23,0,0,0-1.79,1.92,12.29,12.29,0,0,1-5.68,3.89c-.15-.9-.24-1.65-.41-2.39a10.73,10.73,0,0,0-1.82-3.83c-3.11-4.29-9-3.29-11.69.07a3,3,0,0,0-.34,3.67c.7,1.11,1.51,2.15,2.29,3.2s1.6,1.78,1.75,3.07a6.13,6.13,0,0,1-1,.48c-2.22.57-4.45,1.14-6.69,1.67a21.22,21.22,0,0,0-10.66,6.21c-3.13,3.34-3.58,7-1.54,11.18a3.15,3.15,0,0,1,.1.81c-.37.23-.8.54-1.26.78-6.22,3.18-10.52,8.22-13.61,14.33a40.71,40.71,0,0,0-2.66,7.42c-.85,3.1.53,4.89,3.73,5.08,1.64.1,3.29,0,4.93.07.52,0,1,.1,1.62.16-.31,1.94-.6,3.87-.9,5.79-.19,1.27-.27,2.65-.43,4a13.44,13.44,0,0,0-1.75,8.15c-3.34.73-4.93,1.71-6.23,4-2.05,3.68-2.43,7.53-.34,11.31a33.21,33.21,0,0,0,3.35,4.45,14.9,14.9,0,0,0,1.62,1.5,7.4,7.4,0,0,1-1.65.72,18.08,18.08,0,0,1-8.12-.85,30.09,30.09,0,0,0-6-1.63c-10.42-1.09-19.58,3.77-23.6,15.31a4.4,4.4,0,0,0-.18,1,1.77,1.77,0,0,0,2,2,10.26,10.26,0,0,0,2.77-.92c3.86-1.78,7.47-1.22,10.91,1.09.91.61,1.8,1.26,2.69,1.9a15.53,15.53,0,0,0,8.29,2.86c3.32.19,6.27-.61,8.53-3.34a20.57,20.57,0,0,0,3.75-6.15c.47-1.34.92-2.7,1.36-4.05.17-.53.3-1.07,1.13-.94.09.86.12,1.74.27,2.59a63.05,63.05,0,0,0,1.66,8.38,97.25,97.25,0,0,0,10,22.17,30.93,30.93,0,0,1,1.64,2.85c3.28,6.46,6.57,12.91,9.79,19.4.62,1.25,1.37,2.46,1.91,3.75.95,2.28,2.76,5.11,3,7.57.22,1.93-.48,4.34-.72,6.27,0,.15-.05.3-.07.45a55.56,55.56,0,0,1-6.09,8.31c-2.5,2.81-5.34,5.3-7.68,8.26a41.32,41.32,0,0,0-8.29,18.57c-.17,1,.26,2.36,1.44,2.53A42.48,42.48,0,0,1,179.4,357c2.44.89,5.41,3.27,8.09,3a21,21,0,0,0,3.57-1.17,20.42,20.42,0,0,1,4.46-.84,22.37,22.37,0,0,1,9.1,1.26,2.11,2.11,0,0,0,2.53-1.44c2.49-6,5-12.2,4.9-18.78a43,43,0,0,0-1.66-9.34,42.17,42.17,0,0,1-1.14-8.78,33.42,33.42,0,0,0,4.77-7.6,20.81,20.81,0,0,0,1.92-11.81,85.15,85.15,0,0,1-.59-20.37A88.56,88.56,0,0,1,219.91,261c1.78-5.08,3.7-10.1,5.59-15.13.29-.78.73-1.51,1.19-2.45l2.43,2a29,29,0,0,0,11.49,6.2,40,40,0,0,0,10.44,1.17,15,15,0,0,0,13.62-7.76,21.23,21.23,0,0,1,2.31-3.19,10.47,10.47,0,0,1,6.13-3.6c.65-.12,1.32-.06,2-.16C276.94,237.83,277.69,236.16,276.47,234.74Zm-116.19-8.2c-.2-.45-.49-.8-.47-1.13a25.88,25.88,0,0,1,.52-2.76C161.22,225.31,161.22,225.31,160.28,226.54Zm-6.8,26.58c-2.37,1.62-5.23,1.38-7.79.32a17,17,0,0,1-4-2.28,16,16,0,0,0-11.58-3.72,9.25,9.25,0,0,1-1.51-.18,11.74,11.74,0,0,1,1-1.84c4.56-5.4,10.3-7.53,17.28-6.15.43.09.86.15,1.28.28,1.13.33,2.24.73,3.36,1.06.72.21,3.29.33,3.71.9,1.48,2-4.08,1.16-4.8,1a18.6,18.6,0,0,0-8-.32c-.43.08-1,.37-.85.78s.39.37.66.43a41,41,0,0,0,6.22,1,9.87,9.87,0,0,1,5.61,1.82,4.28,4.28,0,0,1,1.44,1.93C156.19,249.93,155.3,251.88,153.48,253.12ZM213,198.35a7.54,7.54,0,0,0,.4-2.26c0-.82.1-1.65.18-3,4.42,4,8.41,7.78,14.38,8.23.11.65.26,1.26.37,1.85C224.06,200,218.66,198.73,213,198.35Zm-43.66,9.41c2-2.93,5.49-3.55,8.73-4.19a70.46,70.46,0,0,1,11.22-1.26c1.93-.07,3.87-.07,5.8,0,8.06.3,16-.32,24,1.26,3.23.64,6.71,1.26,8.72,4.19A11.31,11.31,0,0,1,229.17,218c-1.31,3.09-4.56,4.91-7.56,6.23-4.38,1.93-8.42,1.74-11.77-1.92-3.19-3.49-6.11-6.89-11.24-6.88-4.76,0-8.23,3.62-11.21,6.88-3.35,3.66-7.39,3.85-11.78,1.92-3-1.32-6.25-3.14-7.55-6.23A11.31,11.31,0,0,1,169.37,207.76Zm.36-4.86c.09-.61.18-1.22.28-1.83,0-.22.05-.44.09-.66.67-3.94.65-4,4.44-5,5-1.29,9.54-3.26,13.31-6.85a1.86,1.86,0,0,1,.6-.28c.86.15.66,1,.89,1.52,1.45,3.4,3.38,6.43,6.68,8.31l.52.29c-1,0-2,0-3,0-2-.07-4.08-.08-6.12,0C181.48,198.59,174.58,199.72,169.73,202.9Zm26.37-62.36a2.28,2.28,0,0,1,2.21,1.13,7.76,7.76,0,0,1,1.26,2.94c.28,2.8.31,5.64.4,8.46,0,.14-.25.29-.47.52a52.5,52.5,0,0,0-2.17-6.34,49.66,49.66,0,0,0-3.6-5.49C194.17,140.72,195.1,140.58,196.1,140.54Zm-30,52.69a14.33,14.33,0,0,1-5.75-.08c.4-1.39.65-2.69,1.13-3.89,2.73-6.86,7-12.35,13.84-15.64,2.31-1.11,3.72-.13,5.93.54a8.22,8.22,0,0,0,2.8.15,3.3,3.3,0,0,0,1.5-.33,1.12,1.12,0,0,0,.55-1.32,1.54,1.54,0,0,0-.85-.69,32.36,32.36,0,0,1-4.64-2c-.84-.56-1.32-1.42-2.21-2a3.73,3.73,0,0,1-1.64-5.11,9.58,9.58,0,0,1,2-3,15,15,0,0,1,6.34-4c3.23-1,6.56-1.66,9.75-2.45a1.83,1.83,0,0,1-.11,2.88,2.46,2.46,0,0,1-1.55.43c-.52,0-1.17,0-1.39.43s.36,1.05.89,1.27c4.91,2,12.93,1.25,16.17-3.35a2.16,2.16,0,0,0,.5-1.22.92.92,0,0,0-.74-1c-.5,0-.87.43-1.21.79a2.39,2.39,0,0,1-2.14.86c-2.56-.54-.71-4.21.53-5.06.73-.49,1.49-.92,2.22-1.42a32.72,32.72,0,0,0,6.24-5.33c1.13-1.27,2.47-1.1,3.09.43a11.51,11.51,0,0,1,.89,3.81,26,26,0,0,1-1.09,8.63c-.87,2.76-2.92,5.29-4.45,7.75a1.05,1.05,0,0,0-.21.5c0,.44.51.73.94.65a2.56,2.56,0,0,0,1.11-.7c1.61-1.42,4.88-3.76,7.09-4,1.88-.17,3.57,3.53,4,5.17.85,3.54.36,5.12-2.72,6.9a11.83,11.83,0,0,1-4,1.52,50.05,50.05,0,0,1-9.91.71,3.16,3.16,0,0,0-1.11.08,1.09,1.09,0,0,0-.78.73c-.15.64.47,1.18,1.05,1.5,4,2.22,8.61,1.56,12.88.6a3.78,3.78,0,0,1,2.52.22,14.81,14.81,0,0,1,7.47,7.1,23.21,23.21,0,0,1,2.58,6.74,33.19,33.19,0,0,1,.29,4.57,1.34,1.34,0,0,1-1.21,1.37c-3.43.48-6.79.4-9.83-1.58a26.49,26.49,0,0,1-7.22-6.66A10.72,10.72,0,0,0,214,187a1.87,1.87,0,0,0-2.85.52,10.31,10.31,0,0,0-1.45,4.67c-.1,1-.05,2-.13,3a17,17,0,0,1-.33,1.83c-3.31.35-8.28-.56-10.63-1.94a12,12,0,0,1-6-9.69,4.19,4.19,0,0,1,.4-1.88,18.15,18.15,0,0,1,1-1.69,1.52,1.52,0,0,0-.3-1.82,1.72,1.72,0,0,0-2.11-.31,10.27,10.27,0,0,0-1.19,1.1c-1.5,1.46-3,2.92-4.49,4.36a25.76,25.76,0,0,1-11.11,6.16C171.94,192,169.05,192.67,166.14,193.23Zm-.63,40.32c-1.62-.23-2.4-1.2-3.31-2.29l1.44-2.6,2.55,1.33C166,231.21,165.74,232.32,165.51,233.55ZM204,354.79a25.43,25.43,0,0,0-15.15.47,6.57,6.57,0,0,1-1.63.64,7,7,0,0,1-2.47-1c-1.26-.61-2.56-1.16-3.87-1.65a42,42,0,0,0-7.18-2A37,37,0,0,1,181.91,335c2.35-2.64,5-5,7.27-7.71.28-.32.54-.66.81-1a12,12,0,0,0,.57,3.51c.74,2.49,2.58,3.42,5.11,2.74a11.88,11.88,0,0,0,5-3c1.59-1.5,3.14-3,4.68-4.57.14,1.27.33,2.54.58,3.8.61,3.18,1.75,6.27,1.94,9.52C208.24,344,206.17,349.54,204,354.79Zm-9.45-32.13c0-.23.09-.46.13-.69a7.91,7.91,0,0,0,5.87,2.06c-.74.73-1.47,1.46-2.22,2.18A18.67,18.67,0,0,1,196,328a7.29,7.29,0,0,1-1.38.56A10.14,10.14,0,0,1,194.55,322.66ZM225,236.18c-2.89,7.7-5.94,15.35-8.76,23.07a91.24,91.24,0,0,0-4.78,20.13c-.93,7.48-.39,14.9.31,22.34.11,1.1.17,2.19.27,3.28a10.47,10.47,0,0,1-1.11,5.75,16.16,16.16,0,0,1-3.94,5.59c-.95.78-2.07,1.28-3.07,2-1.31.89-2.49,1.8-4.19,1.62-4.66-.48-3.91-5.81-3.69-9,.25-3.65-1.42-7.4-3.61-10.31a33.52,33.52,0,0,1-3-6c-1.88-4-3.78-7.92-5.82-11.8s-4.25-7.44-6.25-11.22c-4-7.48-7.46-15.16-8.92-23.59a46.53,46.53,0,0,1-.87-8.33c5.57,1.74,11,3.61,16.53,3.85,1.33,1.69,2.46,3.31,3.78,4.76,2.92,3.21,6.81,4,10.84,3.52,5.19-.58,8.83-3.59,11.19-8.21a11.29,11.29,0,0,0,1-7.06,17.17,17.17,0,0,0-3.48-8.08c-4.71-5.94-12-5.8-17.16-2.52a48.72,48.72,0,0,0-5.16,4.47A37.56,37.56,0,0,1,167.57,226c0-.6,0-1.14,0-1.68,0-.18,0-.35,0-.53a22.1,22.1,0,0,0,10,5.19,12.47,12.47,0,0,0,9.28-1.06c2.23-1.35,3.59-3.7,5.34-5.55,2.51-2.67,7.12-3.8,10.44-2s4.58,5.63,7.71,7.52a12.47,12.47,0,0,0,9.28,1.06,23.08,23.08,0,0,0,8.32-3.8A56,56,0,0,1,225,236.18Zm-55.13-4.53,3.44,1.1c-.31,1.58-.54,2.73-.81,4.11l-2.76-.83C169.06,234.52,169.43,233.23,169.86,231.65Zm6.6,4.53c.21-.52.54-1.41.92-2.27.05-.12.39-.17.57-.13s.45.24.45.37a18.36,18.36,0,0,1-.13,2.57c-.18,1.41-.51,1.81-1.09,1.57C176.36,238,176.56,237.24,176.46,236.18Zm6.36-1.74c.65-.05,1,.21.9.74-.17,1.39-.39,2.77-.64,4.52-.53-.45-1-.64-1.05-.92A6.53,6.53,0,0,1,182.82,234.44Zm9.94-5.69a6.27,6.27,0,0,1,4.23-1.14c3.79-.09,6.34,1.72,8.11,4.77a20.46,20.46,0,0,1,1.09,2.38C209.31,242,202,249,195.54,247.68c-4.22-.86-7.38-3.72-7.86-8C187.15,235.05,188.74,231.31,192.76,228.75Zm76.48,6.51a18.46,18.46,0,0,0-7.63,7.05c-.43.64-.84,1.29-1.27,1.93a9.63,9.63,0,0,1-7.38,4.42c-2,.19-6.74,1.47-7.74-1s2.48-5,4.26-6.24a28.78,28.78,0,0,1,7.8-4.13.65.65,0,0,0,.29-.14c.2-.19.06-.56-.19-.68a1.35,1.35,0,0,0-.82,0c-3.85.73-6.1,2.51-9.26,4.78-.83.6-6.84,4.3-7.44,2.51-.26-.76,1.86-1.32,2.3-1.56a17,17,0,0,0,5.07-4.28,17.81,17.81,0,0,1,5.86-4.71c3.82-1.92,7.84-2.8,12.09-1.67a10.41,10.41,0,0,1,5.16,3A7.57,7.57,0,0,1,269.24,235.26Z"/><path class="ab94931b-29c2-4738-a954-254cd8f5bddc" d="M185.9,338.87l-.12.26a28.89,28.89,0,0,0-2,9c-.05.55,0,1.23.47,1.48a1,1,0,0,0,1.08-.3,2.81,2.81,0,0,0,.51-1.09c1.07-3.64,2.07-7.49,3.44-11a3.74,3.74,0,0,0,.41-2.36C188.11,335.24,186.54,337.48,185.9,338.87Z"/><path class="ab94931b-29c2-4738-a954-254cd8f5bddc" d="M197.45,335.73a.73.73,0,0,0-.9.24,2.05,2.05,0,0,0-.37.93,27.72,27.72,0,0,0-.51,4,61,61,0,0,1-.69,7.71,3,3,0,0,0-.08,1.19c.35,1.52,1.73.43,2-.46,1.09-3.41,1.1-7.06,1.09-10.65A5.34,5.34,0,0,0,197.45,335.73Z"/><path class="ab94931b-29c2-4738-a954-254cd8f5bddc" d="M307.83,118a9.5,9.5,0,0,0-1.85-3.82,4.63,4.63,0,0,1-1.14-2c0-.2-.09-.39-.14-.59a13.48,13.48,0,0,0-.84-5.53c-1.93-4.82-4.18-9.47-8.45-12.73A72.07,72.07,0,0,0,289,88.76,35.83,35.83,0,0,0,280.28,85c-3.53-1-7-2-10.56-3,.18-.4.37-.79.56-1.19,2.47-5.13,4-10.48,3.35-16.23a34.62,34.62,0,0,0-1.1-5.81c-.44-1.59-1.25-3.22-2.89-3.82a11,11,0,0,0-8.36.27c-1.4.61-1.8,1.63-1.48,3.26.25,1.3.63,2.57.86,3.86a36.4,36.4,0,0,1-.16,14.07,9.91,9.91,0,0,1-.78,1.73,14.45,14.45,0,0,0-9.33-2.2,10.4,10.4,0,0,0-2.12-8.2,25.07,25.07,0,0,0-6.56-6.35,50.85,50.85,0,0,0-13.32-6.26c-4.12-1.28-8.45-1.48-12.68-2.21s-8.14-.16-12.08-2.38a8.25,8.25,0,0,1-4-9.53c.37-1.37.93-2.69,1.35-4.05a4.73,4.73,0,0,0-2-5.77,8.11,8.11,0,0,0-6.6-1.23,37.86,37.86,0,0,0-19.69,9.94c-4.6,4.41-9.72,11-11.35,17.35-.43,1.68-.63,3.41-.94,5.21-2.45.39-4.75.33-7.17,1.16-2.27.79-4.55,2-6.66,2.91a16.14,16.14,0,0,0-4.39,2.88,143.63,143.63,0,0,1-4.88-14.92,60.83,60.83,0,0,0-2.13-6.22,14.65,14.65,0,0,0-8-8.33A151.18,151.18,0,0,0,105.66,32C99,30,92.4,28.13,85.77,26.19,84,25.67,82.22,25,80.43,24.54,76,23.28,71.58,22,67.14,20.84a13.81,13.81,0,0,0-3-.31,3.94,3.94,0,0,0-4,2.76,11.36,11.36,0,0,0-.69,2.19c-.62,3.24-1.29,6.46-1.74,9.72-.41,3,.17,3.88,2.92,5.14a41.09,41.09,0,0,0,4,1.52c2.38.83,4.78,1.6,7.17,2.4a64.81,64.81,0,0,0,8.57,2.29c2,.39,4,1.1,6,1.62,3.71,1,7.42,1.94,11.15,2.8a29.9,29.9,0,0,1,6.55,2.14c3.35,1.63,6.65,3.37,10,5a9,9,0,0,1,4.55,5c1,2.43,2.11,4.84,2.94,7.33,1.51,4.58,2.86,9.21,4.34,14-.84.23-1.53.45-2.24.61-.39.09-.78.19-1.16.3l0,.15q-3.09.63-6.12,1.55a33.31,33.31,0,0,0-15.7,9.83,68.39,68.39,0,0,0-4.5,5.68,25.56,25.56,0,0,0-4.73,9.69,4.63,4.63,0,0,1-1.14,2A9.37,9.37,0,0,0,88.56,118c-1.4,5.18-.07,11,.42,16.33C91,156.23,94.84,178,99.27,199.52c2,10,3.57,20.41,6.21,30.18s7.43,18.83,9.86,28.68A181.67,181.67,0,0,1,118.92,277c1.24,8.9,1.8,17.87,2.82,26.77,1.11,9.63,2.94,19.16,4.72,28.68l4.08,21.86a98.64,98.64,0,0,0,2.33,10.32c.75,2.45,1.31,5.75,3.17,7.66s5.39,2.46,7.8,3.15c5.58,1.58,11.23,3,16.92,4.15a196.84,196.84,0,0,0,20.85,2.89,164.22,164.22,0,0,0,16.58.57,164.42,164.42,0,0,0,16.59-.57,197.2,197.2,0,0,0,20.85-2.89c5.69-1.12,11.33-2.57,16.92-4.15a42.73,42.73,0,0,0,6.11-2.28c5.65-2.55,6.12-13.32,7.16-18.85l4.08-21.86c1.8-9.64,3.11-19.35,4.61-29,1.38-9,1.94-18,3.14-26.94A169.1,169.1,0,0,1,281,258.38c2.58-10.44,8.4-19.78,11.3-30.16,9.14-32.7,9.46-66.94,16-100.13A22.06,22.06,0,0,0,307.83,118ZM265.21,66.24c-.13-2.48-.63-4.94-1-7.36,1.12-.86,2.22-.42,3.3-.41,1.33,1,1.6,2.57,1.83,4.07a27.1,27.1,0,0,1-4.19,19c-.63-.23-1.2-.42-1.81-.63.56-2.59,1.25-5,1.56-7.45A39.26,39.26,0,0,0,265.21,66.24ZM253.73,80a5.7,5.7,0,0,1,3.51,1.65c2,2.3,4.71,3.14,7.39,4.11,1.34.49,2.74.8,4.09,1.24,5.34,1.76,9.12,5.14,10.95,10.54.36,1,.69,2.08,1,3.15a10.65,10.65,0,0,1-1.18,8,61.78,61.78,0,0,1-24-7.11c-3.44-1.85-6.63-3.9-10.61-4.34-2.55-.28-8.94,1.26-10.68-1.12-1.17-1.6-.07-4,.88-5.33,2.91-4.22,6.45-7.78,11.3-9.75A13,13,0,0,1,253.73,80ZM110.82,51.8c-1.17-.54-2.19-.94-3.16-1.46a35,35,0,0,0-10.54-3.58A78.37,78.37,0,0,1,86,43.8a11.6,11.6,0,0,0-1.88-.57c-6.56-1-12.68-3.46-19-5.4-1.2-.37-2.56-.62-3.5-1.89a54.28,54.28,0,0,1,2.27-11.18,10.23,10.23,0,0,1,2.43,0c4.44,1.2,8.86,2.47,13.28,3.73,1.68.49,3.34,1.06,5,1.55,6,1.75,12,3.42,18,5.23,4.61,1.4,9.18,3,13.75,4.47a10,10,0,0,1,1.75,1C115.13,44.18,113.5,48.31,110.82,51.8Zm6.88,3.56c-1-.61-2.22-.65-2.76-2.08,1.48-2.64,3-5.42,4.61-8.13a7.83,7.83,0,0,1,2-2.15,2.25,2.25,0,0,1,1.8-.39c2.64,1,5.29,2.12,6.88,4.9C125.61,49.46,121.71,52.43,117.7,55.36Zm3.12,2.94a44.29,44.29,0,0,1,10.92-7.53A19.55,19.55,0,0,1,133.67,57c-3.78,1.43-7.79,1.82-11.22,4.3Zm3,6.12c3.68-1.13,7-3.13,10.83-3.44,1.69,3.2,9.63,26.2,10.68,30.89-.21.18-.42.5-.69.58a8.38,8.38,0,0,0-4.31,3.4A8.46,8.46,0,0,1,138,98.43l-3.3-.69ZM97.26,108.18a57.31,57.31,0,0,1,7.22-9.39,29,29,0,0,1,13.4-8,66.56,66.56,0,0,1,9.31-2l.36,0c1.09,3.34,2.16,6.65,3.28,10.1-.94.45-1.72.81-2.49,1.2a6.74,6.74,0,0,0-3.12,3.31c-.4.87-1.39,3.7,0,4.25a1.21,1.21,0,0,0,.43.06.82.82,0,0,0,.26-.06.75.75,0,0,0,.3-.43,8,8,0,0,1,2.36-2.68,3.65,3.65,0,0,1,.56-.41,7.61,7.61,0,0,1,.79-.31c.66-.24,1.23-.6,1.91-.8,1.67-.5,3.23-1.35,5.08-.66,2.06.76,3.6-.05,4.81-1.78.68-1,1.51-1.88,2.24-2.84a4.72,4.72,0,0,1,4-1.89c3.53,0,7.33.33,10.47,2.1a2.72,2.72,0,0,0,1.17.45.82.82,0,0,0,.9-.69,1.17,1.17,0,0,0-.16-.54,5.56,5.56,0,0,0-1.1-1.57,13.85,13.85,0,0,0-4.73-2.41c-1.55-.52-3.15-.88-4.66-1.29-.37-.79-.76-1.8-1.14-2.89,2.77.31,5.52.73,8.26,1.3s5.75,1.39,8.66,1.91c6.8,1.23,13.62,2.33,20.43,3.52a105.58,105.58,0,0,0,18,1.7c4.72,0,10.29.86,14.77-.78a3.24,3.24,0,0,0,1.65-1.08,1.29,1.29,0,0,0-.25-1.78,1.88,1.88,0,0,0-1.08-.15c-4.68.24-9.34-.77-14-.59a73.85,73.85,0,0,1-12.6-.37c-6.74-.88-13.44-2.1-20.13-3.29-4.53-.81-9-1.77-13.53-2.78a97.08,97.08,0,0,0-11.46-1.78c-.49-1.94-1.1-3.82-1.74-5.71-.25-.74-2.27-5.16-2-5.56a10.39,10.39,0,0,1,3.28-2.85,35.86,35.86,0,0,1,15.38-4.29c.65,0,1.3-.13,2-.17a23.47,23.47,0,0,1,3.24-.13c7.32.61,13.89,3.53,21.11,4.72a10.86,10.86,0,0,0,4.32.12,2.45,2.45,0,0,0-1-2.29,7.32,7.32,0,0,0-2.37-1.09L186,66.46a117.7,117.7,0,0,0-16.74-4.17c-1.49-.26-3-.33-4.6-.48a10.64,10.64,0,0,1,1.09-5.5c2.53-6.57,7.15-11.51,12.46-15.89,3.45-2.84,7.53-4.49,11.7-5.87a21.21,21.21,0,0,1,4.21-.74,3,3,0,0,1,3,1.34c-.56,1.82-1.11,3.48-1.59,5.17a10.92,10.92,0,0,0,.54,7.4,13.34,13.34,0,0,0,8.19,7.58c3.59,1.34,7,1.24,10.72,1.86,4.08.67,8.2.64,12.21,1.79a45.49,45.49,0,0,1,14.32,7.19A15.92,15.92,0,0,1,246,71.81a4.57,4.57,0,0,1-.64,5.29,23.09,23.09,0,0,0-3.52,1.64c-.83.1-1.68.13-2.51.26-3.69.54-7.43.88-11.05,1.73-8.91,2.1-17.22,2.49-26.29,2.64a1.66,1.66,0,0,0-1.47.54c-.47.77.5,1.62,1.34,2a24.48,24.48,0,0,0,7.69,1.4,59.44,59.44,0,0,0,16.73-1.9c3.16-.74,6.33-1.41,9.53-1.87-.61.62-1.2,1.26-1.78,1.93a22.65,22.65,0,0,0-4.08,7c-.94,2.71-1.16,5.48-3.37,7.57-1.29,1.22-3,1.92-4.32,3.07-.62.53-1.18,1.52-.59,2.1,1.7,1.68,8.51-1.42,10.38-1.87.58-.14,1.16-.28,1.75-.4,4.12-.84,8.44-1.66,12.6-.56,2.83.76,5.48,2.76,8.09,4.08A66,66,0,0,0,270.26,112a70.06,70.06,0,0,0,8.27,1.3c2.52.24,5,1,7.53,1a4,4,0,0,0,2.09-.47,1.62,1.62,0,0,0,.74-1.85,2.44,2.44,0,0,0-1.35-1.12c-2.22-1-3.73-1.62-3-4.2a11.34,11.34,0,0,0,0-6.82c-.16-.53-.28-1.06-.42-1.59a21.38,21.38,0,0,0-4.93-9.36,42.42,42.42,0,0,1,11.16,5.53,24.09,24.09,0,0,1,7.94,9.69c1.86,4.12,3.34,8.78-1.74,10.29-4.2,1.24-8.35,2.71-12.73,3.23-2.8.33-5.56.2-8.36.43-2.13.18-4.25.54-6.38.8-1.65.21-3.16.68-4.78,1a9.7,9.7,0,0,0-3.67,1.13,1.18,1.18,0,0,0-.53.55.92.92,0,0,0,.63,1,2.93,2.93,0,0,0,1.35,0c1.05-.12,2.35,0,2.83.92.7,1.36-1.21,4.21-1.71,5.49a41.71,41.71,0,0,0-2,6.55c-1,4.61-1.79,9.26-2.67,13.9-.65,3.45-1.19,6.92-2,10.34a18.47,18.47,0,0,1-1.86,4.54,6.58,6.58,0,0,1-2.07,2,1.88,1.88,0,0,1-2.56-.7,12.9,12.9,0,0,1-.56-1.19,26,26,0,0,1-2.28-12.19c.1-3.41.3-6.81.38-10.21a37,37,0,0,0-.17-5.26,8,8,0,0,0-4.64-6.39,5.14,5.14,0,0,0-6.09.78c-1,.89-1.88,1.85-2.83,2.76a8.84,8.84,0,0,1-4.68,2.24,4.15,4.15,0,0,1-3.91-1.2,8.19,8.19,0,0,1-2.27-4.3c-.35-1.74-1.72-5.63.24-7,.13-.1.28-.17.4-.27a1.16,1.16,0,0,0,.3-1.1,2.35,2.35,0,0,0-1.73-1.63,10.18,10.18,0,0,0-2.48-.22c-3.35-.11-6.6-.42-10-.42q-5.68,0-11.36.34H198a159.54,159.54,0,0,0-22.72.09c-1.2.09-2.41.16-3.62.15q-16.49-.06-33-.15a19.44,19.44,0,0,1-2.95-.23c-2.82-.43-5.62-1-8.45-1.38-3.48-.43-6.93-1.11-10.48-.87a23.45,23.45,0,0,1-4.25-.36c-4.39-.52-8.54-2-12.74-3.23a8.49,8.49,0,0,1-4.28-2.23A10.62,10.62,0,0,1,97.26,108.18Zm207.27,18.66c-.42,6.4-2.3,13.21-3.06,19-1.29,9.79-2.58,19.57-4,29.33C294.61,194.63,291.19,214,286,233c-2.69,9.75-8.13,17.68-10.38,27.62-2.61,11.55-3.94,23.37-5,35.13-1.08,12-3.09,23.7-5.29,35.5C263.74,339.57,264,353,256,358.15a27.87,27.87,0,0,1-8.77,3.35c-2.58.62-14.84.89-14.22,5.1.41,2.79,7.83,1.74,9.59,1.62,1.11-.07,3.77-.72,4.77,0,2.33,1.67-3.82,3-4.82,3.16l-6.22.88a1.87,1.87,0,0,0-1.13.42c-.29.29-.3.88.08,1a1,1,0,0,0,.42,0l2.39-.12a1.91,1.91,0,0,1,.89.11c1.7.88-5.2,2.34-5.69,2.43-3.2.61-6.44,1.07-9.68,1.43-6.46.73-13,1.08-19.46,1.39q-3,.15-6,.19t-6-.19A233.08,233.08,0,0,1,163,376c-5.73-1-18.17-2.15-18.85-9.84a1.77,1.77,0,0,1,1.35-1.69,5.25,5.25,0,0,1,2.33,0l9.19,1.6a4.8,4.8,0,0,0,2.41,0,1.65,1.65,0,0,0,1.16-1.87c-.24-.76-1.11-1.08-1.88-1.29-4.5-1.24-9-2.46-13.45-3.83-3.75-1.16-6.94-2.33-8.79-6.16a21.47,21.47,0,0,1-1.39-4.31c-1.42-5.78-2.9-11.6-4-17.45-2.26-12.1-4.6-24.23-5.35-36.53-.34-5.64-1.58-11.23-2.28-16.87s-1.38-11.56-2.66-17.23c-2.22-9.85-6.69-18.56-9.81-28.07-6.7-20.42-8.74-43.2-12.64-64.31-1.62-8.73-3.24-17.46-4.41-26.26-1-7.23-3.24-16.16-1.52-23.29.25-1,.53-2.15,1.81-2.59a63,63,0,0,0,13.62,4.73,42.72,42.72,0,0,0,6.15,1c3.5.32,7,.41,10.52.65a43.77,43.77,0,0,1,4.57.52,85.25,85.25,0,0,0,14.07,1.49c10.44,0,20.87.35,31.31,0,1.75-.06,3.51-.21,5.26-.23,2.69,0,5.38-.08,8.07-.1a22,22,0,0,0,2.57.17c2.62,0,5.23-.06,7.85-.11s5.24.11,7.86.11a22.33,22.33,0,0,0,2.57-.17c2.69,0,5.38.06,8.06.1.27,0,.54,0,.8,0,.53,2.4,1.11,4.84,1.59,7.3a11.5,11.5,0,0,0,3.66,6.48,7.9,7.9,0,0,0,7.6,2,14.19,14.19,0,0,0,6.86-3.7c.63-.61,1.24-1.25,1.88-1.85a1.71,1.71,0,0,1,2.61-.08,4.68,4.68,0,0,1,1.86,4c-.18,6.79-.75,13.65,0,20.4.35,3.1,1.69,5.89,2.89,8.72,1,2.36,5.15,4,7.66,2.61a10.37,10.37,0,0,0,4.06-3.74c2.35-3.8,2.9-8.18,3.56-12.49.77-5,1.79-10,2.84-15a59.5,59.5,0,0,1,2.67-9.83c1.93-4.82,6-5.25,10.55-6.3l.63-.15a29,29,0,0,1,4-.88,43,43,0,0,0,6.15-1,69.94,69.94,0,0,0,8-2.35c1.72-.63,4.86-3.11,6.67-1.58C305.29,118.6,304.68,124.53,304.53,126.84Z"/><path class="ab94931b-29c2-4738-a954-254cd8f5bddc" d="M181.08,370.75A38,38,0,0,1,172,369a6.93,6.93,0,0,0-2.18-.51,2,2,0,0,0-1.86,1c-2.26,5.16,17,5.45,19.2,5.16a5.44,5.44,0,0,0,2.83-.95,1.84,1.84,0,0,0,.27-2.66C187.19,371,184.11,371,181.08,370.75Z"/><path class="ab94931b-29c2-4738-a954-254cd8f5bddc" d="M206.53,367.55c-4.65-.4-9.36-.32-14.05-.42a.72.72,0,0,0-.46.08.54.54,0,0,0,0,.79,1.51,1.51,0,0,0,.82.34c7.11,1.38,15,2.09,22.14,1a11.92,11.92,0,0,0,4.08-1.13c.27-.15.57-.43.45-.72s-.45-.28-.72-.27C214.76,367.35,210.55,367.89,206.53,367.55Z"/><path class="ab94931b-29c2-4738-a954-254cd8f5bddc" d="M221.86,370.8c-1.76.07-4,1.23-5.48,1.16-.57,0-6.52,1.07-4.41,2.65a1.24,1.24,0,0,0,.55.19,21.18,21.18,0,0,0,9-.31c1.76-.5,4.5-2,1.66-3.44A2.63,2.63,0,0,0,221.86,370.8Z"/><path class="b68764b1-d395-4f6b-b2fb-ce71422c5a9e" d="M215.06,235.55c-2.65,0-2.66,4.12,0,4.12S217.71,235.55,215.06,235.55Z"/><path class="b68764b1-d395-4f6b-b2fb-ce71422c5a9e" d="M216.66,230.87a1.37,1.37,0,0,0,0,2.74A1.37,1.37,0,0,0,216.66,230.87Z"/><path class="b68764b1-d395-4f6b-b2fb-ce71422c5a9e" d="M221.91,232c-2.95,0-3,4.58,0,4.58S224.86,232,221.91,232Zm.38,2.79a.77.77,0,0,1-.76-.76.71.71,0,0,1,.29-.58.8.8,0,0,1,.6-.3.76.76,0,0,1,.75.76A.83.83,0,0,1,222.29,234.79Z"/></svg>